<?xml version="1.0" encoding="UTF-8" standalone="no"?>
<!DOCTYPE svg PUBLIC "-//W3C//DTD SVG 1.1//EN"
 "http://www.w3.org/Graphics/SVG/1.1/DTD/svg11.dtd">
<!-- Generated by graphviz version 14.1.2 (20260124.0452)
 -->
<!-- Title: G Pages: 1 -->
<svg width="2573pt" height="1145pt"
 viewBox="0.00 0.00 2573.00 1145.00" xmlns="http://www.w3.org/2000/svg" xmlns:xlink="http://www.w3.org/1999/xlink">
<g id="graph0" class="graph" transform="scale(1 1) rotate(0) translate(21.6 1123.35)">
<title>G</title>
<polygon fill="#111111" stroke="none" points="-21.6,21.6 -21.6,-1123.35 2551.6,-1123.35 2551.6,21.6 -21.6,21.6"/>
<!-- app.tsx -->
<g id="node1" class="node">
<title>app.tsx</title>
<path fill="none" stroke="#c6c5fe" d="M264.83,-64.75C264.83,-64.75 221.17,-64.75 221.17,-64.75 217.21,-64.75 213.25,-60.79 213.25,-56.83 213.25,-56.83 213.25,-48.92 213.25,-48.92 213.25,-44.96 217.21,-41 221.17,-41 221.17,-41 264.83,-41 264.83,-41 268.79,-41 272.75,-44.96 272.75,-48.92 272.75,-48.92 272.75,-56.83 272.75,-56.83 272.75,-60.79 268.79,-64.75 264.83,-64.75"/>
<text xml:space="preserve" text-anchor="middle" x="243" y="-47.45" font-family="Arial" font-size="14.00" fill="#c6c5fe">app.tsx</text>
</g>
<!-- core/profile/index.ts -->
<g id="node2" class="node">
<title>core/profile/index.ts</title>
<path fill="none" stroke="#c6c5fe" d="M585.33,-107.75C585.33,-107.75 468.17,-107.75 468.17,-107.75 464.21,-107.75 460.25,-103.79 460.25,-99.83 460.25,-99.83 460.25,-91.92 460.25,-91.92 460.25,-87.96 464.21,-84 468.17,-84 468.17,-84 585.33,-84 585.33,-84 589.29,-84 593.25,-87.96 593.25,-91.92 593.25,-91.92 593.25,-99.83 593.25,-99.83 593.25,-103.79 589.29,-107.75 585.33,-107.75"/>
<text xml:space="preserve" text-anchor="middle" x="526.75" y="-90.45" font-family="Arial" font-size="14.00" fill="#c6c5fe">core/profile/index.ts</text>
</g>
<!-- app.tsx&#45;&gt;core/profile/index.ts -->
<g id="edge1" class="edge">
<title>app.tsx&#45;&gt;core/profile/index.ts</title>
<path fill="none" stroke="#757575" d="M273.03,-57.88C299.95,-62.47 341.14,-69.38 377,-74.88 400.26,-78.44 425.61,-82.1 448.67,-85.35"/>
<polygon fill="#757575" stroke="#757575" points="447.91,-88.77 458.3,-86.7 448.88,-81.84 447.91,-88.77"/>
</g>
<!-- core/router/index.ts -->
<g id="node3" class="node">
<title>core/router/index.ts</title>
<path fill="none" stroke="#c6c5fe" d="M584.58,-65.75C584.58,-65.75 468.92,-65.75 468.92,-65.75 464.96,-65.75 461,-61.79 461,-57.83 461,-57.83 461,-49.92 461,-49.92 461,-45.96 464.96,-42 468.92,-42 468.92,-42 584.58,-42 584.58,-42 588.54,-42 592.5,-45.96 592.5,-49.92 592.5,-49.92 592.5,-57.83 592.5,-57.83 592.5,-61.79 588.54,-65.75 584.58,-65.75"/>
<text xml:space="preserve" text-anchor="middle" x="526.75" y="-48.45" font-family="Arial" font-size="14.00" fill="#c6c5fe">core/router/index.ts</text>
</g>
<!-- app.tsx&#45;&gt;core/router/index.ts -->
<g id="edge2" class="edge">
<title>app.tsx&#45;&gt;core/router/index.ts</title>
<path fill="none" stroke="#757575" d="M273.09,-52.98C314.28,-53.12 391.06,-53.4 449.21,-53.6"/>
<polygon fill="#757575" stroke="#757575" points="449.05,-57.1 459.06,-53.64 449.07,-50.1 449.05,-57.1"/>
</g>
<!-- style.css -->
<g id="node4" class="node">
<title>style.css</title>
<path fill="none" stroke="#cfffac" d="M552.71,-23.75C552.71,-23.75 500.79,-23.75 500.79,-23.75 496.83,-23.75 492.88,-19.79 492.88,-15.83 492.88,-15.83 492.88,-7.92 492.88,-7.92 492.88,-3.96 496.83,0 500.79,0 500.79,0 552.71,0 552.71,0 556.67,0 560.62,-3.96 560.62,-7.92 560.62,-7.92 560.62,-15.83 560.62,-15.83 560.62,-19.79 556.67,-23.75 552.71,-23.75"/>
<text xml:space="preserve" text-anchor="middle" x="526.75" y="-6.45" font-family="Arial" font-size="14.00" fill="#cfffac">style.css</text>
</g>
<!-- app.tsx&#45;&gt;style.css -->
<g id="edge3" class="edge">
<title>app.tsx&#45;&gt;style.css</title>
<path fill="none" stroke="#757575" d="M273.05,-48.43C299.98,-44.33 341.19,-38.1 377,-32.88 412.09,-27.76 451.86,-22.16 481.44,-18.02"/>
<polygon fill="#757575" stroke="#757575" points="481.73,-21.52 491.15,-16.67 480.77,-14.58 481.73,-21.52"/>
</g>
<!-- core/profile/profile.context.tsx -->
<g id="node5" class="node">
<title>core/profile/profile.context.tsx</title>
<path fill="none" stroke="#cfffac" d="M969.21,-107.75C969.21,-107.75 793.54,-107.75 793.54,-107.75 789.58,-107.75 785.62,-103.79 785.62,-99.83 785.62,-99.83 785.62,-91.92 785.62,-91.92 785.62,-87.96 789.58,-84 793.54,-84 793.54,-84 969.21,-84 969.21,-84 973.17,-84 977.12,-87.96 977.12,-91.92 977.12,-91.92 977.12,-99.83 977.12,-99.83 977.12,-103.79 973.17,-107.75 969.21,-107.75"/>
<text xml:space="preserve" text-anchor="middle" x="881.38" y="-90.45" font-family="Arial" font-size="14.00" fill="#cfffac">core/profile/profile.context.tsx</text>
</g>
<!-- core/profile/index.ts&#45;&gt;core/profile/profile.context.tsx -->
<g id="edge4" class="edge">
<title>core/profile/index.ts&#45;&gt;core/profile/profile.context.tsx</title>
<path fill="none" stroke="#757575" d="M593.66,-95.88C644.32,-95.88 715.32,-95.88 773.99,-95.88"/>
<polygon fill="#757575" stroke="#757575" points="773.66,-99.38 783.66,-95.88 773.66,-92.38 773.66,-99.38"/>
</g>
<!-- core/router/router.component.tsx -->
<g id="node6" class="node">
<title>core/router/router.component.tsx</title>
<path fill="none" stroke="#c6c5fe" d="M979.33,-65.75C979.33,-65.75 783.42,-65.75 783.42,-65.75 779.46,-65.75 775.5,-61.79 775.5,-57.83 775.5,-57.83 775.5,-49.92 775.5,-49.92 775.5,-45.96 779.46,-42 783.42,-42 783.42,-42 979.33,-42 979.33,-42 983.29,-42 987.25,-45.96 987.25,-49.92 987.25,-49.92 987.25,-57.83 987.25,-57.83 987.25,-61.79 983.29,-65.75 979.33,-65.75"/>
<text xml:space="preserve" text-anchor="middle" x="881.38" y="-48.45" font-family="Arial" font-size="14.00" fill="#c6c5fe">core/router/router.component.tsx</text>
</g>
<!-- core/router/index.ts&#45;&gt;core/router/router.component.tsx -->
<g id="edge5" class="edge">
<title>core/router/index.ts&#45;&gt;core/router/router.component.tsx</title>
<path fill="none" stroke="#757575" d="M592.84,-53.88C640.69,-53.88 707.02,-53.88 763.92,-53.88"/>
<polygon fill="#757575" stroke="#757575" points="763.65,-57.38 773.65,-53.88 763.65,-50.38 763.65,-57.38"/>
</g>
<!-- core/router/routes.ts -->
<g id="node7" class="node">
<title>core/router/routes.ts</title>
<path fill="none" stroke="#cfffac" d="M1364.33,-45.75C1364.33,-45.75 1243.42,-45.75 1243.42,-45.75 1239.46,-45.75 1235.5,-41.79 1235.5,-37.83 1235.5,-37.83 1235.5,-29.92 1235.5,-29.92 1235.5,-25.96 1239.46,-22 1243.42,-22 1243.42,-22 1364.33,-22 1364.33,-22 1368.29,-22 1372.25,-25.96 1372.25,-29.92 1372.25,-29.92 1372.25,-37.83 1372.25,-37.83 1372.25,-41.79 1368.29,-45.75 1364.33,-45.75"/>
<text xml:space="preserve" text-anchor="middle" x="1303.88" y="-28.45" font-family="Arial" font-size="14.00" fill="#cfffac">core/router/routes.ts</text>
</g>
<!-- core/router/index.ts&#45;&gt;core/router/routes.ts -->
<g id="edge6" class="edge">
<title>core/router/index.ts&#45;&gt;core/router/routes.ts</title>
<path fill="none" stroke="#757575" d="M592.58,-44.69C627.94,-40.14 672.54,-35.14 712.5,-32.88 895.28,-22.52 1110.4,-27.1 1223.76,-30.82"/>
<polygon fill="#757575" stroke="#757575" points="1223.45,-34.31 1233.56,-31.15 1223.68,-27.31 1223.45,-34.31"/>
</g>
<!-- core/router/router.component.tsx&#45;&gt;core/router/routes.ts -->
<g id="edge7" class="edge">
<title>core/router/router.component.tsx&#45;&gt;core/router/routes.ts</title>
<path fill="none" stroke="#757575" d="M987.67,-48.87C1060.92,-45.38 1157.02,-40.81 1223.76,-37.64"/>
<polygon fill="#757575" stroke="#757575" points="1223.71,-41.14 1233.53,-37.17 1223.38,-34.15 1223.71,-41.14"/>
</g>
<!-- dummy.spec.ts -->
<g id="node8" class="node">
<title>dummy.spec.ts</title>
<path fill="none" stroke="#cfffac" d="M100.33,-111.75C100.33,-111.75 8.67,-111.75 8.67,-111.75 4.71,-111.75 0.75,-107.79 0.75,-103.83 0.75,-103.83 0.75,-95.92 0.75,-95.92 0.75,-91.96 4.71,-88 8.67,-88 8.67,-88 100.33,-88 100.33,-88 104.29,-88 108.25,-91.96 108.25,-95.92 108.25,-95.92 108.25,-103.83 108.25,-103.83 108.25,-107.79 104.29,-111.75 100.33,-111.75"/>
<text xml:space="preserve" text-anchor="middle" x="54.5" y="-94.45" font-family="Arial" font-size="14.00" fill="#cfffac">dummy.spec.ts</text>
</g>
<!-- index.tsx -->
<g id="node9" class="node">
<title>index.tsx</title>
<path fill="none" stroke="#c6c5fe" d="M81.21,-49.75C81.21,-49.75 27.79,-49.75 27.79,-49.75 23.83,-49.75 19.88,-45.79 19.88,-41.83 19.88,-41.83 19.88,-33.92 19.88,-33.92 19.88,-29.96 23.83,-26 27.79,-26 27.79,-26 81.21,-26 81.21,-26 85.17,-26 89.12,-29.96 89.12,-33.92 89.12,-33.92 89.12,-41.83 89.12,-41.83 89.12,-45.79 85.17,-49.75 81.21,-49.75"/>
<text xml:space="preserve" text-anchor="middle" x="54.5" y="-32.45" font-family="Arial" font-size="14.00" fill="#c6c5fe">index.tsx</text>
</g>
<!-- index.tsx&#45;&gt;app.tsx -->
<g id="edge8" class="edge">
<title>index.tsx&#45;&gt;app.tsx</title>
<path fill="none" stroke="#757575" d="M89.27,-40.59C120.82,-43.13 167.96,-46.92 201.52,-49.62"/>
<polygon fill="#757575" stroke="#757575" points="201.01,-53.09 211.26,-50.4 201.57,-46.11 201.01,-53.09"/>
</g>
<!-- index.tsx&#45;&gt;style.css -->
<g id="edge9" class="edge">
<title>index.tsx&#45;&gt;style.css</title>
<path fill="none" stroke="#757575" d="M89.49,-35.48C106.21,-34.33 126.66,-32.97 145,-31.88 266.58,-24.61 410.09,-17.45 481.2,-14.01"/>
<polygon fill="#757575" stroke="#757575" points="481.05,-17.52 490.87,-13.54 480.71,-10.53 481.05,-17.52"/>
</g>
<!-- layouts/app/app&#45;layout.module.css -->
<g id="node10" class="node">
<title>layouts/app/app&#45;layout.module.css</title>
<path fill="none" stroke="#cfffac" d="M985.71,-191.75C985.71,-191.75 777.04,-191.75 777.04,-191.75 773.08,-191.75 769.12,-187.79 769.12,-183.83 769.12,-183.83 769.12,-175.92 769.12,-175.92 769.12,-171.96 773.08,-168 777.04,-168 777.04,-168 985.71,-168 985.71,-168 989.67,-168 993.62,-171.96 993.62,-175.92 993.62,-175.92 993.62,-183.83 993.62,-183.83 993.62,-187.79 989.67,-191.75 985.71,-191.75"/>
<text xml:space="preserve" text-anchor="middle" x="881.38" y="-174.45" font-family="Arial" font-size="14.00" fill="#cfffac">layouts/app/app&#45;layout.module.css</text>
</g>
<!-- layouts/app/app&#45;layout.tsx -->
<g id="node11" class="node">
<title>layouts/app/app&#45;layout.tsx</title>
<path fill="none" stroke="#c6c5fe" d="M605.21,-163.75C605.21,-163.75 448.29,-163.75 448.29,-163.75 444.33,-163.75 440.38,-159.79 440.38,-155.83 440.38,-155.83 440.38,-147.92 440.38,-147.92 440.38,-143.96 444.33,-140 448.29,-140 448.29,-140 605.21,-140 605.21,-140 609.17,-140 613.12,-143.96 613.12,-147.92 613.12,-147.92 613.12,-155.83 613.12,-155.83 613.12,-159.79 609.17,-163.75 605.21,-163.75"/>
<text xml:space="preserve" text-anchor="middle" x="526.75" y="-146.45" font-family="Arial" font-size="14.00" fill="#c6c5fe">layouts/app/app&#45;layout.tsx</text>
</g>
<!-- layouts/app/app&#45;layout.tsx&#45;&gt;layouts/app/app&#45;layout.module.css -->
<g id="edge10" class="edge">
<title>layouts/app/app&#45;layout.tsx&#45;&gt;layouts/app/app&#45;layout.module.css</title>
<path fill="none" stroke="#757575" d="M613.56,-158.69C656.78,-162.12 709.95,-166.34 757.43,-170.11"/>
<polygon fill="#757575" stroke="#757575" points="756.97,-173.59 767.22,-170.89 757.53,-166.61 756.97,-173.59"/>
</g>
<!-- layouts/app/components/index.ts -->
<g id="node12" class="node">
<title>layouts/app/components/index.ts</title>
<path fill="none" stroke="#c6c5fe" d="M980.08,-149.75C980.08,-149.75 782.67,-149.75 782.67,-149.75 778.71,-149.75 774.75,-145.79 774.75,-141.83 774.75,-141.83 774.75,-133.92 774.75,-133.92 774.75,-129.96 778.71,-126 782.67,-126 782.67,-126 980.08,-126 980.08,-126 984.04,-126 988,-129.96 988,-133.92 988,-133.92 988,-141.83 988,-141.83 988,-145.79 984.04,-149.75 980.08,-149.75"/>
<text xml:space="preserve" text-anchor="middle" x="881.38" y="-132.45" font-family="Arial" font-size="14.00" fill="#c6c5fe">layouts/app/components/index.ts</text>
</g>
<!-- layouts/app/app&#45;layout.tsx&#45;&gt;layouts/app/components/index.ts -->
<g id="edge11" class="edge">
<title>layouts/app/app&#45;layout.tsx&#45;&gt;layouts/app/components/index.ts</title>
<path fill="none" stroke="#757575" d="M613.56,-148.47C658.48,-146.68 714.15,-144.47 763,-142.54"/>
<polygon fill="#757575" stroke="#757575" points="762.92,-146.04 772.77,-142.15 762.64,-139.05 762.92,-146.04"/>
</g>
<!-- layouts/app/components/footer.component.tsx -->
<g id="node14" class="node">
<title>layouts/app/components/footer.component.tsx</title>
<path fill="none" stroke="#c6c5fe" d="M1442.33,-191.75C1442.33,-191.75 1165.42,-191.75 1165.42,-191.75 1161.46,-191.75 1157.5,-187.79 1157.5,-183.83 1157.5,-183.83 1157.5,-175.92 1157.5,-175.92 1157.5,-171.96 1161.46,-168 1165.42,-168 1165.42,-168 1442.33,-168 1442.33,-168 1446.29,-168 1450.25,-171.96 1450.25,-175.92 1450.25,-175.92 1450.25,-183.83 1450.25,-183.83 1450.25,-187.79 1446.29,-191.75 1442.33,-191.75"/>
<text xml:space="preserve" text-anchor="middle" x="1303.88" y="-174.45" font-family="Arial" font-size="14.00" fill="#c6c5fe">layouts/app/components/footer.component.tsx</text>
</g>
<!-- layouts/app/components/index.ts&#45;&gt;layouts/app/components/footer.component.tsx -->
<g id="edge14" class="edge">
<title>layouts/app/components/index.ts&#45;&gt;layouts/app/components/footer.component.tsx</title>
<path fill="none" stroke="#757575" d="M988.44,-148.92C1019.92,-152.17 1054.47,-155.7 1086.25,-158.88 1110.98,-161.35 1137.3,-163.93 1162.76,-166.42"/>
<polygon fill="#757575" stroke="#757575" points="1162.2,-169.88 1172.49,-167.36 1162.88,-162.91 1162.2,-169.88"/>
</g>
<!-- layouts/app/components/header.component.tsx -->
<g id="node16" class="node">
<title>layouts/app/components/header.component.tsx</title>
<path fill="none" stroke="#c6c5fe" d="M1446.08,-149.75C1446.08,-149.75 1161.67,-149.75 1161.67,-149.75 1157.71,-149.75 1153.75,-145.79 1153.75,-141.83 1153.75,-141.83 1153.75,-133.92 1153.75,-133.92 1153.75,-129.96 1157.71,-126 1161.67,-126 1161.67,-126 1446.08,-126 1446.08,-126 1450.04,-126 1454,-129.96 1454,-133.92 1454,-133.92 1454,-141.83 1454,-141.83 1454,-145.79 1450.04,-149.75 1446.08,-149.75"/>
<text xml:space="preserve" text-anchor="middle" x="1303.88" y="-132.45" font-family="Arial" font-size="14.00" fill="#c6c5fe">layouts/app/components/header.component.tsx</text>
</g>
<!-- layouts/app/components/index.ts&#45;&gt;layouts/app/components/header.component.tsx -->
<g id="edge15" class="edge">
<title>layouts/app/components/index.ts&#45;&gt;layouts/app/components/header.component.tsx</title>
<path fill="none" stroke="#757575" d="M988.48,-137.88C1035.07,-137.88 1090.77,-137.88 1142.26,-137.88"/>
<polygon fill="#757575" stroke="#757575" points="1142.01,-141.38 1152.01,-137.88 1142.01,-134.38 1142.01,-141.38"/>
</g>
<!-- layouts/app/components/navbar.component.tsx -->
<g id="node17" class="node">
<title>layouts/app/components/navbar.component.tsx</title>
<path fill="none" stroke="#c6c5fe" d="M1445.71,-107.75C1445.71,-107.75 1162.04,-107.75 1162.04,-107.75 1158.08,-107.75 1154.12,-103.79 1154.12,-99.83 1154.12,-99.83 1154.12,-91.92 1154.12,-91.92 1154.12,-87.96 1158.08,-84 1162.04,-84 1162.04,-84 1445.71,-84 1445.71,-84 1449.67,-84 1453.62,-87.96 1453.62,-91.92 1453.62,-91.92 1453.62,-99.83 1453.62,-99.83 1453.62,-103.79 1449.67,-107.75 1445.71,-107.75"/>
<text xml:space="preserve" text-anchor="middle" x="1303.88" y="-90.45" font-family="Arial" font-size="14.00" fill="#c6c5fe">layouts/app/components/navbar.component.tsx</text>
</g>
<!-- layouts/app/components/index.ts&#45;&gt;layouts/app/components/navbar.component.tsx -->
<g id="edge16" class="edge">
<title>layouts/app/components/index.ts&#45;&gt;layouts/app/components/navbar.component.tsx</title>
<path fill="none" stroke="#757575" d="M988.44,-126.83C1019.92,-123.58 1054.47,-120.05 1086.25,-116.88 1110.98,-114.4 1137.3,-111.82 1162.76,-109.33"/>
<polygon fill="#757575" stroke="#757575" points="1162.88,-112.84 1172.49,-108.39 1162.2,-105.87 1162.88,-112.84"/>
</g>
<!-- layouts/app/components/footer.component.module.css -->
<g id="node13" class="node">
<title>layouts/app/components/footer.component.module.css</title>
<path fill="none" stroke="#cfffac" d="M1948.08,-191.75C1948.08,-191.75 1619.42,-191.75 1619.42,-191.75 1615.46,-191.75 1611.5,-187.79 1611.5,-183.83 1611.5,-183.83 1611.5,-175.92 1611.5,-175.92 1611.5,-171.96 1615.46,-168 1619.42,-168 1619.42,-168 1948.08,-168 1948.08,-168 1952.04,-168 1956,-171.96 1956,-175.92 1956,-175.92 1956,-183.83 1956,-183.83 1956,-187.79 1952.04,-191.75 1948.08,-191.75"/>
<text xml:space="preserve" text-anchor="middle" x="1783.75" y="-174.45" font-family="Arial" font-size="14.00" fill="#cfffac">layouts/app/components/footer.component.module.css</text>
</g>
<!-- layouts/app/components/footer.component.tsx&#45;&gt;layouts/app/components/footer.component.module.css -->
<g id="edge12" class="edge">
<title>layouts/app/components/footer.component.tsx&#45;&gt;layouts/app/components/footer.component.module.css</title>
<path fill="none" stroke="#757575" d="M1450.52,-179.88C1497.52,-179.88 1550.22,-179.88 1599.56,-179.88"/>
<polygon fill="#757575" stroke="#757575" points="1599.51,-183.38 1609.51,-179.88 1599.51,-176.38 1599.51,-183.38"/>
</g>
<!-- layouts/app/components/header.component.module.css -->
<g id="node15" class="node">
<title>layouts/app/components/header.component.module.css</title>
<path fill="none" stroke="#cfffac" d="M1951.83,-149.75C1951.83,-149.75 1615.67,-149.75 1615.67,-149.75 1611.71,-149.75 1607.75,-145.79 1607.75,-141.83 1607.75,-141.83 1607.75,-133.92 1607.75,-133.92 1607.75,-129.96 1611.71,-126 1615.67,-126 1615.67,-126 1951.83,-126 1951.83,-126 1955.79,-126 1959.75,-129.96 1959.75,-133.92 1959.75,-133.92 1959.75,-141.83 1959.75,-141.83 1959.75,-145.79 1955.79,-149.75 1951.83,-149.75"/>
<text xml:space="preserve" text-anchor="middle" x="1783.75" y="-132.45" font-family="Arial" font-size="14.00" fill="#cfffac">layouts/app/components/header.component.module.css</text>
</g>
<!-- layouts/app/components/header.component.tsx&#45;&gt;layouts/app/components/header.component.module.css -->
<g id="edge13" class="edge">
<title>layouts/app/components/header.component.tsx&#45;&gt;layouts/app/components/header.component.module.css</title>
<path fill="none" stroke="#757575" d="M1454.44,-137.88C1499.3,-137.88 1549.08,-137.88 1596.03,-137.88"/>
<polygon fill="#757575" stroke="#757575" points="1595.75,-141.38 1605.75,-137.88 1595.75,-134.38 1595.75,-141.38"/>
</g>
<!-- layouts/app/components/navbar.component.module.css -->
<g id="node18" class="node">
<title>layouts/app/components/navbar.component.module.css</title>
<path fill="none" stroke="#cfffac" d="M1951.46,-107.75C1951.46,-107.75 1616.04,-107.75 1616.04,-107.75 1612.08,-107.75 1608.12,-103.79 1608.12,-99.83 1608.12,-99.83 1608.12,-91.92 1608.12,-91.92 1608.12,-87.96 1612.08,-84 1616.04,-84 1616.04,-84 1951.46,-84 1951.46,-84 1955.42,-84 1959.38,-87.96 1959.38,-91.92 1959.38,-91.92 1959.38,-99.83 1959.38,-99.83 1959.38,-103.79 1955.42,-107.75 1951.46,-107.75"/>
<text xml:space="preserve" text-anchor="middle" x="1783.75" y="-90.45" font-family="Arial" font-size="14.00" fill="#cfffac">layouts/app/components/navbar.component.module.css</text>
</g>
<!-- layouts/app/components/navbar.component.tsx&#45;&gt;layouts/app/components/navbar.component.module.css -->
<g id="edge17" class="edge">
<title>layouts/app/components/navbar.component.tsx&#45;&gt;layouts/app/components/navbar.component.module.css</title>
<path fill="none" stroke="#757575" d="M1454.11,-95.88C1499.24,-95.88 1549.36,-95.88 1596.59,-95.88"/>
<polygon fill="#757575" stroke="#757575" points="1596.37,-99.38 1606.37,-95.88 1596.37,-92.38 1596.37,-99.38"/>
</g>
<!-- layouts/app/index.ts -->
<g id="node19" class="node">
<title>layouts/app/index.ts</title>
<path fill="none" stroke="#c6c5fe" d="M302.71,-163.75C302.71,-163.75 183.29,-163.75 183.29,-163.75 179.33,-163.75 175.38,-159.79 175.38,-155.83 175.38,-155.83 175.38,-147.92 175.38,-147.92 175.38,-143.96 179.33,-140 183.29,-140 183.29,-140 302.71,-140 302.71,-140 306.67,-140 310.62,-143.96 310.62,-147.92 310.62,-147.92 310.62,-155.83 310.62,-155.83 310.62,-159.79 306.67,-163.75 302.71,-163.75"/>
<text xml:space="preserve" text-anchor="middle" x="243" y="-146.45" font-family="Arial" font-size="14.00" fill="#c6c5fe">layouts/app/index.ts</text>
</g>
<!-- layouts/app/index.ts&#45;&gt;layouts/app/app&#45;layout.tsx -->
<g id="edge18" class="edge">
<title>layouts/app/index.ts&#45;&gt;layouts/app/app&#45;layout.tsx</title>
<path fill="none" stroke="#757575" d="M310.77,-151.88C345.95,-151.88 389.74,-151.88 428.6,-151.88"/>
<polygon fill="#757575" stroke="#757575" points="428.44,-155.38 438.44,-151.88 428.44,-148.38 428.44,-155.38"/>
</g>
<!-- layouts/index.ts -->
<g id="node20" class="node">
<title>layouts/index.ts</title>
<path fill="none" stroke="#c6c5fe" d="M101.08,-163.75C101.08,-163.75 7.92,-163.75 7.92,-163.75 3.96,-163.75 0,-159.79 0,-155.83 0,-155.83 0,-147.92 0,-147.92 0,-143.96 3.96,-140 7.92,-140 7.92,-140 101.08,-140 101.08,-140 105.04,-140 109,-143.96 109,-147.92 109,-147.92 109,-155.83 109,-155.83 109,-159.79 105.04,-163.75 101.08,-163.75"/>
<text xml:space="preserve" text-anchor="middle" x="54.5" y="-146.45" font-family="Arial" font-size="14.00" fill="#c6c5fe">layouts/index.ts</text>
</g>
<!-- layouts/index.ts&#45;&gt;layouts/app/index.ts -->
<g id="edge19" class="edge">
<title>layouts/index.ts&#45;&gt;layouts/app/index.ts</title>
<path fill="none" stroke="#757575" d="M109.44,-151.88C126.29,-151.88 145.23,-151.88 163.41,-151.88"/>
<polygon fill="#757575" stroke="#757575" points="163.4,-155.38 173.4,-151.88 163.4,-148.38 163.4,-155.38"/>
</g>
<!-- pages/account&#45;list/account&#45;list.mapper.specs.ts -->
<g id="node21" class="node">
<title>pages/account&#45;list/account&#45;list.mapper.specs.ts</title>
<path fill="none" stroke="#c6c5fe" d="M668.58,-1081.75C668.58,-1081.75 384.92,-1081.75 384.92,-1081.75 380.96,-1081.75 377,-1077.79 377,-1073.83 377,-1073.83 377,-1065.92 377,-1065.92 377,-1061.96 380.96,-1058 384.92,-1058 384.92,-1058 668.58,-1058 668.58,-1058 672.54,-1058 676.5,-1061.96 676.5,-1065.92 676.5,-1065.92 676.5,-1073.83 676.5,-1073.83 676.5,-1077.79 672.54,-1081.75 668.58,-1081.75"/>
<text xml:space="preserve" text-anchor="middle" x="526.75" y="-1064.45" font-family="Arial" font-size="14.00" fill="#c6c5fe">pages/account&#45;list/account&#45;list.mapper.specs.ts</text>
</g>
<!-- pages/account&#45;list/account&#45;list.mapper.ts -->
<g id="node22" class="node">
<title>pages/account&#45;list/account&#45;list.mapper.ts</title>
<path fill="none" stroke="#c6c5fe" d="M1426.21,-1025.75C1426.21,-1025.75 1181.54,-1025.75 1181.54,-1025.75 1177.58,-1025.75 1173.62,-1021.79 1173.62,-1017.83 1173.62,-1017.83 1173.62,-1009.92 1173.62,-1009.92 1173.62,-1005.96 1177.58,-1002 1181.54,-1002 1181.54,-1002 1426.21,-1002 1426.21,-1002 1430.17,-1002 1434.12,-1005.96 1434.12,-1009.92 1434.12,-1009.92 1434.12,-1017.83 1434.12,-1017.83 1434.12,-1021.79 1430.17,-1025.75 1426.21,-1025.75"/>
<text xml:space="preserve" text-anchor="middle" x="1303.88" y="-1008.45" font-family="Arial" font-size="14.00" fill="#c6c5fe">pages/account&#45;list/account&#45;list.mapper.ts</text>
</g>
<!-- pages/account&#45;list/account&#45;list.mapper.specs.ts&#45;&gt;pages/account&#45;list/account&#45;list.mapper.ts -->
<g id="edge20" class="edge">
<title>pages/account&#45;list/account&#45;list.mapper.specs.ts&#45;&gt;pages/account&#45;list/account&#45;list.mapper.ts</title>
<path fill="none" stroke="#757575" d="M676.74,-1059.11C816.72,-1049 1024.65,-1033.98 1161.94,-1024.06"/>
<polygon fill="#757575" stroke="#757575" points="1162.12,-1027.55 1171.84,-1023.34 1161.61,-1020.57 1162.12,-1027.55"/>
</g>
<!-- pages/account&#45;list/api/index.ts -->
<g id="node23" class="node">
<title>pages/account&#45;list/api/index.ts</title>
<path fill="none" stroke="#c6c5fe" d="M971.83,-1101.75C971.83,-1101.75 790.92,-1101.75 790.92,-1101.75 786.96,-1101.75 783,-1097.79 783,-1093.83 783,-1093.83 783,-1085.92 783,-1085.92 783,-1081.96 786.96,-1078 790.92,-1078 790.92,-1078 971.83,-1078 971.83,-1078 975.79,-1078 979.75,-1081.96 979.75,-1085.92 979.75,-1085.92 979.75,-1093.83 979.75,-1093.83 979.75,-1097.79 975.79,-1101.75 971.83,-1101.75"/>
<text xml:space="preserve" text-anchor="middle" x="881.38" y="-1084.45" font-family="Arial" font-size="14.00" fill="#c6c5fe">pages/account&#45;list/api/index.ts</text>
</g>
<!-- pages/account&#45;list/account&#45;list.mapper.specs.ts&#45;&gt;pages/account&#45;list/api/index.ts -->
<g id="edge21" class="edge">
<title>pages/account&#45;list/account&#45;list.mapper.specs.ts&#45;&gt;pages/account&#45;list/api/index.ts</title>
<path fill="none" stroke="#757575" d="M676.78,-1078.33C708.54,-1080.13 741.5,-1082 771.41,-1083.69"/>
<polygon fill="#757575" stroke="#757575" points="771.03,-1087.18 781.21,-1084.25 771.42,-1080.19 771.03,-1087.18"/>
</g>
<!-- pages/account&#45;list/account&#45;list.vm.ts -->
<g id="node24" class="node">
<title>pages/account&#45;list/account&#45;list.vm.ts</title>
<path fill="none" stroke="#cfffac" d="M2396.83,-967.75C2396.83,-967.75 2179.17,-967.75 2179.17,-967.75 2175.21,-967.75 2171.25,-963.79 2171.25,-959.83 2171.25,-959.83 2171.25,-951.92 2171.25,-951.92 2171.25,-947.96 2175.21,-944 2179.17,-944 2179.17,-944 2396.83,-944 2396.83,-944 2400.79,-944 2404.75,-947.96 2404.75,-951.92 2404.75,-951.92 2404.75,-959.83 2404.75,-959.83 2404.75,-963.79 2400.79,-967.75 2396.83,-967.75"/>
<text xml:space="preserve" text-anchor="middle" x="2288" y="-950.45" font-family="Arial" font-size="14.00" fill="#cfffac">pages/account&#45;list/account&#45;list.vm.ts</text>
</g>
<!-- pages/account&#45;list/account&#45;list.mapper.ts&#45;&gt;pages/account&#45;list/account&#45;list.vm.ts -->
<g id="edge22" class="edge">
<title>pages/account&#45;list/account&#45;list.mapper.ts&#45;&gt;pages/account&#45;list/account&#45;list.vm.ts</title>
<path fill="none" stroke="#757575" d="M1434.36,-1012.13C1575.92,-1009.52 1809.37,-1003.14 2010,-987.88 2067.9,-983.47 2132.35,-976.17 2184.51,-969.65"/>
<polygon fill="#757575" stroke="#757575" points="2184.8,-973.14 2194.28,-968.42 2183.92,-966.2 2184.8,-973.14"/>
</g>
<!-- pages/account&#45;list/api/account&#45;list.api&#45;model.ts -->
<g id="node25" class="node">
<title>pages/account&#45;list/api/account&#45;list.api&#45;model.ts</title>
<path fill="none" stroke="#cfffac" d="M1924.08,-1067.75C1924.08,-1067.75 1643.42,-1067.75 1643.42,-1067.75 1639.46,-1067.75 1635.5,-1063.79 1635.5,-1059.83 1635.5,-1059.83 1635.5,-1051.92 1635.5,-1051.92 1635.5,-1047.96 1639.46,-1044 1643.42,-1044 1643.42,-1044 1924.08,-1044 1924.08,-1044 1928.04,-1044 1932,-1047.96 1932,-1051.92 1932,-1051.92 1932,-1059.83 1932,-1059.83 1932,-1063.79 1928.04,-1067.75 1924.08,-1067.75"/>
<text xml:space="preserve" text-anchor="middle" x="1783.75" y="-1050.45" font-family="Arial" font-size="14.00" fill="#cfffac">pages/account&#45;list/api/account&#45;list.api&#45;model.ts</text>
</g>
<!-- pages/account&#45;list/account&#45;list.mapper.ts&#45;&gt;pages/account&#45;list/api/account&#45;list.api&#45;model.ts -->
<g id="edge23" class="edge">
<title>pages/account&#45;list/account&#45;list.mapper.ts&#45;&gt;pages/account&#45;list/api/account&#45;list.api&#45;model.ts</title>
<path fill="none" stroke="#757575" d="M1434.51,-1025.27C1495.13,-1030.6 1567.72,-1036.98 1630.9,-1042.53"/>
<polygon fill="#757575" stroke="#757575" points="1630.4,-1046 1640.67,-1043.39 1631.01,-1039.03 1630.4,-1046"/>
</g>
<!-- pages/account&#45;list/api/index.ts&#45;&gt;pages/account&#45;list/api/account&#45;list.api&#45;model.ts -->
<g id="edge30" class="edge">
<title>pages/account&#45;list/api/index.ts&#45;&gt;pages/account&#45;list/api/account&#45;list.api&#45;model.ts</title>
<path fill="none" stroke="#757575" d="M980.16,-1089.7C1105.61,-1089.06 1329.88,-1086.52 1521.5,-1076.88 1559.04,-1074.99 1599.55,-1072.13 1637.2,-1069.13"/>
<polygon fill="#757575" stroke="#757575" points="1637.07,-1072.65 1646.76,-1068.36 1636.51,-1065.67 1637.07,-1072.65"/>
</g>
<!-- pages/account&#45;list/api/account&#45;list.api.ts -->
<g id="node29" class="node">
<title>pages/account&#45;list/api/account&#45;list.api.ts</title>
<path fill="none" stroke="#c6c5fe" d="M1423.21,-1067.75C1423.21,-1067.75 1184.54,-1067.75 1184.54,-1067.75 1180.58,-1067.75 1176.62,-1063.79 1176.62,-1059.83 1176.62,-1059.83 1176.62,-1051.92 1176.62,-1051.92 1176.62,-1047.96 1180.58,-1044 1184.54,-1044 1184.54,-1044 1423.21,-1044 1423.21,-1044 1427.17,-1044 1431.12,-1047.96 1431.12,-1051.92 1431.12,-1051.92 1431.12,-1059.83 1431.12,-1059.83 1431.12,-1063.79 1427.17,-1067.75 1423.21,-1067.75"/>
<text xml:space="preserve" text-anchor="middle" x="1303.88" y="-1050.45" font-family="Arial" font-size="14.00" fill="#c6c5fe">pages/account&#45;list/api/account&#45;list.api.ts</text>
</g>
<!-- pages/account&#45;list/api/index.ts&#45;&gt;pages/account&#45;list/api/account&#45;list.api.ts -->
<g id="edge31" class="edge">
<title>pages/account&#45;list/api/index.ts&#45;&gt;pages/account&#45;list/api/account&#45;list.api.ts</title>
<path fill="none" stroke="#757575" d="M980.17,-1081.97C1035.22,-1077.52 1104.85,-1071.89 1165.33,-1067"/>
<polygon fill="#757575" stroke="#757575" points="1165.31,-1070.51 1175,-1066.21 1164.75,-1063.53 1165.31,-1070.51"/>
</g>
<!-- pages/account&#45;list/account&#45;list.page.module.css -->
<g id="node26" class="node">
<title>pages/account&#45;list/account&#45;list.page.module.css</title>
<path fill="none" stroke="#cfffac" d="M1025.08,-945.75C1025.08,-945.75 737.67,-945.75 737.67,-945.75 733.71,-945.75 729.75,-941.79 729.75,-937.83 729.75,-937.83 729.75,-929.92 729.75,-929.92 729.75,-925.96 733.71,-922 737.67,-922 737.67,-922 1025.08,-922 1025.08,-922 1029.04,-922 1033,-925.96 1033,-929.92 1033,-929.92 1033,-937.83 1033,-937.83 1033,-941.79 1029.04,-945.75 1025.08,-945.75"/>
<text xml:space="preserve" text-anchor="middle" x="881.38" y="-928.45" font-family="Arial" font-size="14.00" fill="#cfffac">pages/account&#45;list/account&#45;list.page.module.css</text>
</g>
<!-- pages/account&#45;list/account&#45;list.page.tsx -->
<g id="node27" class="node">
<title>pages/account&#45;list/account&#45;list.page.tsx</title>
<path fill="none" stroke="#c6c5fe" d="M644.58,-965.75C644.58,-965.75 408.92,-965.75 408.92,-965.75 404.96,-965.75 401,-961.79 401,-957.83 401,-957.83 401,-949.92 401,-949.92 401,-945.96 404.96,-942 408.92,-942 408.92,-942 644.58,-942 644.58,-942 648.54,-942 652.5,-945.96 652.5,-949.92 652.5,-949.92 652.5,-957.83 652.5,-957.83 652.5,-961.79 648.54,-965.75 644.58,-965.75"/>
<text xml:space="preserve" text-anchor="middle" x="526.75" y="-948.45" font-family="Arial" font-size="14.00" fill="#c6c5fe">pages/account&#45;list/account&#45;list.page.tsx</text>
</g>
<!-- pages/account&#45;list/account&#45;list.page.tsx&#45;&gt;pages/account&#45;list/account&#45;list.mapper.ts -->
<g id="edge24" class="edge">
<title>pages/account&#45;list/account&#45;list.page.tsx&#45;&gt;pages/account&#45;list/account&#45;list.mapper.ts</title>
<path fill="none" stroke="#757575" d="M583.64,-966.24C620.13,-973.79 668.91,-982.93 712.5,-987.88 865.45,-1005.23 1041.9,-1011.17 1161.77,-1013.12"/>
<polygon fill="#757575" stroke="#757575" points="1161.63,-1016.62 1171.68,-1013.27 1161.74,-1009.62 1161.63,-1016.62"/>
</g>
<!-- pages/account&#45;list/account&#45;list.page.tsx&#45;&gt;pages/account&#45;list/api/index.ts -->
<g id="edge27" class="edge">
<title>pages/account&#45;list/account&#45;list.page.tsx&#45;&gt;pages/account&#45;list/api/index.ts</title>
<path fill="none" stroke="#757575" d="M559.1,-966.18C595.84,-980.57 658.54,-1005.07 712.5,-1025.88 754.91,-1042.22 803.44,-1060.7 837.37,-1073.58"/>
<polygon fill="#757575" stroke="#757575" points="835.85,-1076.74 846.44,-1077.02 838.33,-1070.2 835.85,-1076.74"/>
</g>
<!-- pages/account&#45;list/account&#45;list.page.tsx&#45;&gt;pages/account&#45;list/account&#45;list.vm.ts -->
<g id="edge26" class="edge">
<title>pages/account&#45;list/account&#45;list.page.tsx&#45;&gt;pages/account&#45;list/account&#45;list.vm.ts</title>
<path fill="none" stroke="#757575" d="M652.97,-954.63C672.88,-954.73 693.26,-954.82 712.5,-954.88 1250.45,-956.5 1891.78,-956.22 2159.64,-956"/>
<polygon fill="#757575" stroke="#757575" points="2159.44,-959.5 2169.44,-955.99 2159.43,-952.5 2159.44,-959.5"/>
</g>
<!-- pages/account&#45;list/account&#45;list.page.tsx&#45;&gt;pages/account&#45;list/account&#45;list.page.module.css -->
<g id="edge25" class="edge">
<title>pages/account&#45;list/account&#45;list.page.tsx&#45;&gt;pages/account&#45;list/account&#45;list.page.module.css</title>
<path fill="none" stroke="#757575" d="M652.57,-946.8C673.74,-945.59 696,-944.33 717.97,-943.09"/>
<polygon fill="#757575" stroke="#757575" points="718.13,-946.58 727.92,-942.52 717.73,-939.59 718.13,-946.58"/>
</g>
<!-- pages/account&#45;list/components/index.ts -->
<g id="node28" class="node">
<title>pages/account&#45;list/components/index.ts</title>
<path fill="none" stroke="#c6c5fe" d="M999.96,-903.75C999.96,-903.75 762.79,-903.75 762.79,-903.75 758.83,-903.75 754.88,-899.79 754.88,-895.83 754.88,-895.83 754.88,-887.92 754.88,-887.92 754.88,-883.96 758.83,-880 762.79,-880 762.79,-880 999.96,-880 999.96,-880 1003.92,-880 1007.88,-883.96 1007.88,-887.92 1007.88,-887.92 1007.88,-895.83 1007.88,-895.83 1007.88,-899.79 1003.92,-903.75 999.96,-903.75"/>
<text xml:space="preserve" text-anchor="middle" x="881.38" y="-886.45" font-family="Arial" font-size="14.00" fill="#c6c5fe">pages/account&#45;list/components/index.ts</text>
</g>
<!-- pages/account&#45;list/account&#45;list.page.tsx&#45;&gt;pages/account&#45;list/components/index.ts -->
<g id="edge28" class="edge">
<title>pages/account&#45;list/account&#45;list.page.tsx&#45;&gt;pages/account&#45;list/components/index.ts</title>
<path fill="none" stroke="#757575" d="M577.29,-941.55C614.35,-932.66 666.37,-920.86 712.5,-912.88 727.29,-910.31 742.86,-907.94 758.32,-905.78"/>
<polygon fill="#757575" stroke="#757575" points="758.6,-909.27 768.04,-904.45 757.66,-902.34 758.6,-909.27"/>
</g>
<!-- pages/account&#45;list/components/account&#45;list&#45;table.component.tsx -->
<g id="node33" class="node">
<title>pages/account&#45;list/components/account&#45;list&#45;table.component.tsx</title>
<path fill="none" stroke="#c6c5fe" d="M1496.33,-907.75C1496.33,-907.75 1111.42,-907.75 1111.42,-907.75 1107.46,-907.75 1103.5,-903.79 1103.5,-899.83 1103.5,-899.83 1103.5,-891.92 1103.5,-891.92 1103.5,-887.96 1107.46,-884 1111.42,-884 1111.42,-884 1496.33,-884 1496.33,-884 1500.29,-884 1504.25,-887.96 1504.25,-891.92 1504.25,-891.92 1504.25,-899.83 1504.25,-899.83 1504.25,-903.79 1500.29,-907.75 1496.33,-907.75"/>
<text xml:space="preserve" text-anchor="middle" x="1303.88" y="-890.45" font-family="Arial" font-size="14.00" fill="#c6c5fe">pages/account&#45;list/components/account&#45;list&#45;table.component.tsx</text>
</g>
<!-- pages/account&#45;list/components/index.ts&#45;&gt;pages/account&#45;list/components/account&#45;list&#45;table.component.tsx -->
<g id="edge37" class="edge">
<title>pages/account&#45;list/components/index.ts&#45;&gt;pages/account&#45;list/components/account&#45;list&#45;table.component.tsx</title>
<path fill="none" stroke="#757575" d="M1008.25,-893.07C1034.63,-893.32 1063.14,-893.59 1091.67,-893.87"/>
<polygon fill="#757575" stroke="#757575" points="1091.48,-897.36 1101.51,-893.96 1091.55,-890.36 1091.48,-897.36"/>
</g>
<!-- pages/account&#45;list/api/account&#45;list.api.ts&#45;&gt;pages/account&#45;list/api/account&#45;list.api&#45;model.ts -->
<g id="edge29" class="edge">
<title>pages/account&#45;list/api/account&#45;list.api.ts&#45;&gt;pages/account&#45;list/api/account&#45;list.api&#45;model.ts</title>
<path fill="none" stroke="#757575" d="M1431.37,-1055.88C1490.45,-1055.88 1561.42,-1055.88 1624.06,-1055.88"/>
<polygon fill="#757575" stroke="#757575" points="1623.74,-1059.38 1633.74,-1055.88 1623.73,-1052.38 1623.74,-1059.38"/>
</g>
<!-- pages/account&#45;list/components/account&#45;list&#45;item.component.module.css -->
<g id="node30" class="node">
<title>pages/account&#45;list/components/account&#45;list&#45;item.component.module.css</title>
<path fill="none" stroke="#cfffac" d="M2504.83,-907.75C2504.83,-907.75 2071.17,-907.75 2071.17,-907.75 2067.21,-907.75 2063.25,-903.79 2063.25,-899.83 2063.25,-899.83 2063.25,-891.92 2063.25,-891.92 2063.25,-887.96 2067.21,-884 2071.17,-884 2071.17,-884 2504.83,-884 2504.83,-884 2508.79,-884 2512.75,-887.96 2512.75,-891.92 2512.75,-891.92 2512.75,-899.83 2512.75,-899.83 2512.75,-903.79 2508.79,-907.75 2504.83,-907.75"/>
<text xml:space="preserve" text-anchor="middle" x="2288" y="-890.45" font-family="Arial" font-size="14.00" fill="#cfffac">pages/account&#45;list/components/account&#45;list&#45;item.component.module.css</text>
</g>
<!-- pages/account&#45;list/components/account&#45;list&#45;item.component.tsx -->
<g id="node31" class="node">
<title>pages/account&#45;list/components/account&#45;list&#45;item.component.tsx</title>
<path fill="none" stroke="#c6c5fe" d="M1974.71,-907.75C1974.71,-907.75 1592.79,-907.75 1592.79,-907.75 1588.83,-907.75 1584.88,-903.79 1584.88,-899.83 1584.88,-899.83 1584.88,-891.92 1584.88,-891.92 1584.88,-887.96 1588.83,-884 1592.79,-884 1592.79,-884 1974.71,-884 1974.71,-884 1978.67,-884 1982.62,-887.96 1982.62,-891.92 1982.62,-891.92 1982.62,-899.83 1982.62,-899.83 1982.62,-903.79 1978.67,-907.75 1974.71,-907.75"/>
<text xml:space="preserve" text-anchor="middle" x="1783.75" y="-890.45" font-family="Arial" font-size="14.00" fill="#c6c5fe">pages/account&#45;list/components/account&#45;list&#45;item.component.tsx</text>
</g>
<!-- pages/account&#45;list/components/account&#45;list&#45;item.component.tsx&#45;&gt;pages/account&#45;list/account&#45;list.vm.ts -->
<g id="edge32" class="edge">
<title>pages/account&#45;list/components/account&#45;list&#45;item.component.tsx&#45;&gt;pages/account&#45;list/account&#45;list.vm.ts</title>
<path fill="none" stroke="#757575" d="M1893.32,-908.25C1930.35,-912.51 1971.99,-917.35 2010,-921.88 2064.79,-928.4 2125.65,-935.85 2176.34,-942.11"/>
<polygon fill="#757575" stroke="#757575" points="2175.81,-945.57 2186.16,-943.32 2176.66,-938.62 2175.81,-945.57"/>
</g>
<!-- pages/account&#45;list/components/account&#45;list&#45;item.component.tsx&#45;&gt;pages/account&#45;list/components/account&#45;list&#45;item.component.module.css -->
<g id="edge33" class="edge">
<title>pages/account&#45;list/components/account&#45;list&#45;item.component.tsx&#45;&gt;pages/account&#45;list/components/account&#45;list&#45;item.component.module.css</title>
<path fill="none" stroke="#757575" d="M1982.89,-895.88C2005.53,-895.88 2028.76,-895.88 2051.82,-895.88"/>
<polygon fill="#757575" stroke="#757575" points="2051.6,-899.38 2061.6,-895.88 2051.6,-892.38 2051.6,-899.38"/>
</g>
<!-- pages/account&#45;list/components/account&#45;list&#45;table.component.module.css -->
<g id="node32" class="node">
<title>pages/account&#45;list/components/account&#45;list&#45;table.component.module.css</title>
<path fill="none" stroke="#cfffac" d="M2002.08,-865.75C2002.08,-865.75 1565.42,-865.75 1565.42,-865.75 1561.46,-865.75 1557.5,-861.79 1557.5,-857.83 1557.5,-857.83 1557.5,-849.92 1557.5,-849.92 1557.5,-845.96 1561.46,-842 1565.42,-842 1565.42,-842 2002.08,-842 2002.08,-842 2006.04,-842 2010,-845.96 2010,-849.92 2010,-849.92 2010,-857.83 2010,-857.83 2010,-861.79 2006.04,-865.75 2002.08,-865.75"/>
<text xml:space="preserve" text-anchor="middle" x="1783.75" y="-848.45" font-family="Arial" font-size="14.00" fill="#cfffac">pages/account&#45;list/components/account&#45;list&#45;table.component.module.css</text>
</g>
<!-- pages/account&#45;list/components/account&#45;list&#45;table.component.tsx&#45;&gt;pages/account&#45;list/account&#45;list.vm.ts -->
<g id="edge34" class="edge">
<title>pages/account&#45;list/components/account&#45;list&#45;table.component.tsx&#45;&gt;pages/account&#45;list/account&#45;list.vm.ts</title>
<path fill="none" stroke="#757575" d="M1444.79,-908.25C1481.45,-911.29 1520.95,-914.38 1557.5,-916.88 1768.54,-931.28 2014.22,-943.47 2159.84,-950.22"/>
<polygon fill="#757575" stroke="#757575" points="2159.35,-953.7 2169.5,-950.66 2159.67,-946.7 2159.35,-953.7"/>
</g>
<!-- pages/account&#45;list/components/account&#45;list&#45;table.component.tsx&#45;&gt;pages/account&#45;list/components/account&#45;list&#45;item.component.tsx -->
<g id="edge35" class="edge">
<title>pages/account&#45;list/components/account&#45;list&#45;table.component.tsx&#45;&gt;pages/account&#45;list/components/account&#45;list&#45;item.component.tsx</title>
<path fill="none" stroke="#757575" d="M1504.42,-895.88C1527.19,-895.88 1550.44,-895.88 1573.33,-895.88"/>
<polygon fill="#757575" stroke="#757575" points="1573.02,-899.38 1583.02,-895.88 1573.02,-892.38 1573.02,-899.38"/>
</g>
<!-- pages/account&#45;list/components/account&#45;list&#45;table.component.tsx&#45;&gt;pages/account&#45;list/components/account&#45;list&#45;table.component.module.css -->
<g id="edge36" class="edge">
<title>pages/account&#45;list/components/account&#45;list&#45;table.component.tsx&#45;&gt;pages/account&#45;list/components/account&#45;list&#45;table.component.module.css</title>
<path fill="none" stroke="#757575" d="M1445.67,-883.5C1503.86,-878.39 1571.46,-872.45 1630.78,-867.23"/>
<polygon fill="#757575" stroke="#757575" points="1630.97,-870.73 1640.63,-866.37 1630.36,-863.75 1630.97,-870.73"/>
</g>
<!-- pages/account&#45;list/index.ts -->
<g id="node34" class="node">
<title>pages/account&#45;list/index.ts</title>
<path fill="none" stroke="#c6c5fe" d="M322.58,-870.75C322.58,-870.75 163.42,-870.75 163.42,-870.75 159.46,-870.75 155.5,-866.79 155.5,-862.83 155.5,-862.83 155.5,-854.92 155.5,-854.92 155.5,-850.96 159.46,-847 163.42,-847 163.42,-847 322.58,-847 322.58,-847 326.54,-847 330.5,-850.96 330.5,-854.92 330.5,-854.92 330.5,-862.83 330.5,-862.83 330.5,-866.79 326.54,-870.75 322.58,-870.75"/>
<text xml:space="preserve" text-anchor="middle" x="243" y="-853.45" font-family="Arial" font-size="14.00" fill="#c6c5fe">pages/account&#45;list/index.ts</text>
</g>
<!-- pages/account&#45;list/index.ts&#45;&gt;pages/account&#45;list/account&#45;list.page.tsx -->
<g id="edge38" class="edge">
<title>pages/account&#45;list/index.ts&#45;&gt;pages/account&#45;list/account&#45;list.page.tsx</title>
<path fill="none" stroke="#757575" d="M280.55,-871.2C331.22,-888.28 422.86,-919.18 478.62,-937.98"/>
<polygon fill="#757575" stroke="#757575" points="477.24,-941.21 487.84,-941.09 479.48,-934.58 477.24,-941.21"/>
</g>
<!-- pages/account/account.page.tsx -->
<g id="node35" class="node">
<title>pages/account/account.page.tsx</title>
<path fill="none" stroke="#cfffac" d="M623.58,-723.75C623.58,-723.75 429.92,-723.75 429.92,-723.75 425.96,-723.75 422,-719.79 422,-715.83 422,-715.83 422,-707.92 422,-707.92 422,-703.96 425.96,-700 429.92,-700 429.92,-700 623.58,-700 623.58,-700 627.54,-700 631.5,-703.96 631.5,-707.92 631.5,-707.92 631.5,-715.83 631.5,-715.83 631.5,-719.79 627.54,-723.75 623.58,-723.75"/>
<text xml:space="preserve" text-anchor="middle" x="526.75" y="-706.45" font-family="Arial" font-size="14.00" fill="#cfffac">pages/account/account.page.tsx</text>
</g>
<!-- pages/account/index.ts -->
<g id="node36" class="node">
<title>pages/account/index.ts</title>
<path fill="none" stroke="#c6c5fe" d="M312.08,-723.75C312.08,-723.75 173.92,-723.75 173.92,-723.75 169.96,-723.75 166,-719.79 166,-715.83 166,-715.83 166,-707.92 166,-707.92 166,-703.96 169.96,-700 173.92,-700 173.92,-700 312.08,-700 312.08,-700 316.04,-700 320,-703.96 320,-707.92 320,-707.92 320,-715.83 320,-715.83 320,-719.79 316.04,-723.75 312.08,-723.75"/>
<text xml:space="preserve" text-anchor="middle" x="243" y="-706.45" font-family="Arial" font-size="14.00" fill="#c6c5fe">pages/account/index.ts</text>
</g>
<!-- pages/account/index.ts&#45;&gt;pages/account/account.page.tsx -->
<g id="edge39" class="edge">
<title>pages/account/index.ts&#45;&gt;pages/account/account.page.tsx</title>
<path fill="none" stroke="#757575" d="M320.25,-711.88C348.04,-711.88 380.12,-711.88 410.55,-711.88"/>
<polygon fill="#757575" stroke="#757575" points="410.16,-715.38 420.16,-711.88 410.16,-708.38 410.16,-715.38"/>
</g>
<!-- pages/create&#45;account/create&#45;account.page.tsx -->
<g id="node37" class="node">
<title>pages/create&#45;account/create&#45;account.page.tsx</title>
<path fill="none" stroke="#cfffac" d="M665.58,-681.75C665.58,-681.75 387.92,-681.75 387.92,-681.75 383.96,-681.75 380,-677.79 380,-673.83 380,-673.83 380,-665.92 380,-665.92 380,-661.96 383.96,-658 387.92,-658 387.92,-658 665.58,-658 665.58,-658 669.54,-658 673.5,-661.96 673.5,-665.92 673.5,-665.92 673.5,-673.83 673.5,-673.83 673.5,-677.79 669.54,-681.75 665.58,-681.75"/>
<text xml:space="preserve" text-anchor="middle" x="526.75" y="-664.45" font-family="Arial" font-size="14.00" fill="#cfffac">pages/create&#45;account/create&#45;account.page.tsx</text>
</g>
<!-- pages/create&#45;account/index.ts -->
<g id="node38" class="node">
<title>pages/create&#45;account/index.ts</title>
<path fill="none" stroke="#c6c5fe" d="M333.08,-681.75C333.08,-681.75 152.92,-681.75 152.92,-681.75 148.96,-681.75 145,-677.79 145,-673.83 145,-673.83 145,-665.92 145,-665.92 145,-661.96 148.96,-658 152.92,-658 152.92,-658 333.08,-658 333.08,-658 337.04,-658 341,-661.96 341,-665.92 341,-665.92 341,-673.83 341,-673.83 341,-677.79 337.04,-681.75 333.08,-681.75"/>
<text xml:space="preserve" text-anchor="middle" x="243" y="-664.45" font-family="Arial" font-size="14.00" fill="#c6c5fe">pages/create&#45;account/index.ts</text>
</g>
<!-- pages/create&#45;account/index.ts&#45;&gt;pages/create&#45;account/create&#45;account.page.tsx -->
<g id="edge40" class="edge">
<title>pages/create&#45;account/index.ts&#45;&gt;pages/create&#45;account/create&#45;account.page.tsx</title>
<path fill="none" stroke="#757575" d="M341.36,-669.88C350.18,-669.88 359.25,-669.88 368.42,-669.88"/>
<polygon fill="#757575" stroke="#757575" points="368.12,-673.38 378.12,-669.88 368.12,-666.38 368.12,-673.38"/>
</g>
<!-- pages/index.ts -->
<g id="node39" class="node">
<title>pages/index.ts</title>
<path fill="none" stroke="#c6c5fe" d="M98.08,-660.75C98.08,-660.75 10.92,-660.75 10.92,-660.75 6.96,-660.75 3,-656.79 3,-652.83 3,-652.83 3,-644.92 3,-644.92 3,-640.96 6.96,-637 10.92,-637 10.92,-637 98.08,-637 98.08,-637 102.04,-637 106,-640.96 106,-644.92 106,-644.92 106,-652.83 106,-652.83 106,-656.79 102.04,-660.75 98.08,-660.75"/>
<text xml:space="preserve" text-anchor="middle" x="54.5" y="-643.45" font-family="Arial" font-size="14.00" fill="#c6c5fe">pages/index.ts</text>
</g>
<!-- pages/index.ts&#45;&gt;pages/account&#45;list/index.ts -->
<g id="edge41" class="edge">
<title>pages/index.ts&#45;&gt;pages/account&#45;list/index.ts</title>
<path fill="none" stroke="#757575" d="M95.8,-661.16C100.54,-663.6 105.07,-666.48 109,-669.88 133.4,-690.97 127.12,-706.04 145,-732.88 170.67,-771.41 204.34,-813.54 224.51,-838.01"/>
<polygon fill="#757575" stroke="#757575" points="221.74,-840.15 230.81,-845.61 227.12,-835.68 221.74,-840.15"/>
</g>
<!-- pages/index.ts&#45;&gt;pages/account/index.ts -->
<g id="edge42" class="edge">
<title>pages/index.ts&#45;&gt;pages/account/index.ts</title>
<path fill="none" stroke="#757575" d="M89.23,-661.2C95.87,-663.88 102.71,-666.83 109,-669.88 125.67,-677.95 127.73,-684.17 145,-690.88 150.24,-692.91 155.71,-694.77 161.28,-696.46"/>
<polygon fill="#757575" stroke="#757575" points="160.04,-699.74 170.61,-699.1 161.94,-693.01 160.04,-699.74"/>
</g>
<!-- pages/index.ts&#45;&gt;pages/create&#45;account/index.ts -->
<g id="edge43" class="edge">
<title>pages/index.ts&#45;&gt;pages/create&#45;account/index.ts</title>
<path fill="none" stroke="#757575" d="M106.46,-654.61C115.07,-655.58 124.28,-656.62 133.7,-657.68"/>
<polygon fill="#757575" stroke="#757575" points="133.01,-661.12 143.34,-658.77 133.79,-654.17 133.01,-661.12"/>
</g>
<!-- pages/login/index.ts -->
<g id="node40" class="node">
<title>pages/login/index.ts</title>
<path fill="none" stroke="#c6c5fe" d="M302.71,-639.75C302.71,-639.75 183.29,-639.75 183.29,-639.75 179.33,-639.75 175.38,-635.79 175.38,-631.83 175.38,-631.83 175.38,-623.92 175.38,-623.92 175.38,-619.96 179.33,-616 183.29,-616 183.29,-616 302.71,-616 302.71,-616 306.67,-616 310.62,-619.96 310.62,-623.92 310.62,-623.92 310.62,-631.83 310.62,-631.83 310.62,-635.79 306.67,-639.75 302.71,-639.75"/>
<text xml:space="preserve" text-anchor="middle" x="243" y="-622.45" font-family="Arial" font-size="14.00" fill="#c6c5fe">pages/login/index.ts</text>
</g>
<!-- pages/index.ts&#45;&gt;pages/login/index.ts -->
<g id="edge44" class="edge">
<title>pages/index.ts&#45;&gt;pages/login/index.ts</title>
<path fill="none" stroke="#757575" d="M106.46,-643.14C124.13,-641.15 144.37,-638.87 163.73,-636.69"/>
<polygon fill="#757575" stroke="#757575" points="163.95,-640.19 173.49,-635.59 163.17,-633.23 163.95,-640.19"/>
</g>
<!-- pages/movement&#45;list/index.ts -->
<g id="node41" class="node">
<title>pages/movement&#45;list/index.ts</title>
<path fill="none" stroke="#c6c5fe" d="M331.21,-495.75C331.21,-495.75 154.79,-495.75 154.79,-495.75 150.83,-495.75 146.88,-491.79 146.88,-487.83 146.88,-487.83 146.88,-479.92 146.88,-479.92 146.88,-475.96 150.83,-472 154.79,-472 154.79,-472 331.21,-472 331.21,-472 335.17,-472 339.12,-475.96 339.12,-479.92 339.12,-479.92 339.12,-487.83 339.12,-487.83 339.12,-491.79 335.17,-495.75 331.21,-495.75"/>
<text xml:space="preserve" text-anchor="middle" x="243" y="-478.45" font-family="Arial" font-size="14.00" fill="#c6c5fe">pages/movement&#45;list/index.ts</text>
</g>
<!-- pages/index.ts&#45;&gt;pages/movement&#45;list/index.ts -->
<g id="edge45" class="edge">
<title>pages/index.ts&#45;&gt;pages/movement&#45;list/index.ts</title>
<path fill="none" stroke="#757575" d="M69.21,-636.74C101.07,-608.56 180.31,-538.46 219.42,-503.85"/>
<polygon fill="#757575" stroke="#757575" points="221.71,-506.5 226.88,-497.25 217.07,-501.26 221.71,-506.5"/>
</g>
<!-- pages/transfer/index.ts -->
<g id="node42" class="node">
<title>pages/transfer/index.ts</title>
<path fill="none" stroke="#c6c5fe" d="M311.33,-351.75C311.33,-351.75 174.67,-351.75 174.67,-351.75 170.71,-351.75 166.75,-347.79 166.75,-343.83 166.75,-343.83 166.75,-335.92 166.75,-335.92 166.75,-331.96 170.71,-328 174.67,-328 174.67,-328 311.33,-328 311.33,-328 315.29,-328 319.25,-331.96 319.25,-335.92 319.25,-335.92 319.25,-343.83 319.25,-343.83 319.25,-347.79 315.29,-351.75 311.33,-351.75"/>
<text xml:space="preserve" text-anchor="middle" x="243" y="-334.45" font-family="Arial" font-size="14.00" fill="#c6c5fe">pages/transfer/index.ts</text>
</g>
<!-- pages/index.ts&#45;&gt;pages/transfer/index.ts -->
<g id="edge46" class="edge">
<title>pages/index.ts&#45;&gt;pages/transfer/index.ts</title>
<path fill="none" stroke="#757575" d="M60.29,-636.65C72.44,-606.18 106.28,-524.89 145,-462.88 168.9,-424.59 202.58,-384.25 223.32,-360.61"/>
<polygon fill="#757575" stroke="#757575" points="225.82,-363.06 229.83,-353.25 220.58,-358.42 225.82,-363.06"/>
</g>
<!-- pages/login/login.page.tsx -->
<g id="node51" class="node">
<title>pages/login/login.page.tsx</title>
<path fill="none" stroke="#c6c5fe" d="M604.83,-639.75C604.83,-639.75 448.67,-639.75 448.67,-639.75 444.71,-639.75 440.75,-635.79 440.75,-631.83 440.75,-631.83 440.75,-623.92 440.75,-623.92 440.75,-619.96 444.71,-616 448.67,-616 448.67,-616 604.83,-616 604.83,-616 608.79,-616 612.75,-619.96 612.75,-623.92 612.75,-623.92 612.75,-631.83 612.75,-631.83 612.75,-635.79 608.79,-639.75 604.83,-639.75"/>
<text xml:space="preserve" text-anchor="middle" x="526.75" y="-622.45" font-family="Arial" font-size="14.00" fill="#c6c5fe">pages/login/login.page.tsx</text>
</g>
<!-- pages/login/index.ts&#45;&gt;pages/login/login.page.tsx -->
<g id="edge54" class="edge">
<title>pages/login/index.ts&#45;&gt;pages/login/login.page.tsx</title>
<path fill="none" stroke="#757575" d="M310.77,-627.88C346.09,-627.88 390.11,-627.88 429.09,-627.88"/>
<polygon fill="#757575" stroke="#757575" points="428.97,-631.38 438.97,-627.88 428.97,-624.38 428.97,-631.38"/>
</g>
<!-- pages/movement&#45;list/movement&#45;list.page.tsx -->
<g id="node65" class="node">
<title>pages/movement&#45;list/movement&#45;list.page.tsx</title>
<path fill="none" stroke="#c6c5fe" d="M661.83,-393.75C661.83,-393.75 391.67,-393.75 391.67,-393.75 387.71,-393.75 383.75,-389.79 383.75,-385.83 383.75,-385.83 383.75,-377.92 383.75,-377.92 383.75,-373.96 387.71,-370 391.67,-370 391.67,-370 661.83,-370 661.83,-370 665.79,-370 669.75,-373.96 669.75,-377.92 669.75,-377.92 669.75,-385.83 669.75,-385.83 669.75,-389.79 665.79,-393.75 661.83,-393.75"/>
<text xml:space="preserve" text-anchor="middle" x="526.75" y="-376.45" font-family="Arial" font-size="14.00" fill="#c6c5fe">pages/movement&#45;list/movement&#45;list.page.tsx</text>
</g>
<!-- pages/movement&#45;list/index.ts&#45;&gt;pages/movement&#45;list/movement&#45;list.page.tsx -->
<g id="edge77" class="edge">
<title>pages/movement&#45;list/index.ts&#45;&gt;pages/movement&#45;list/movement&#45;list.page.tsx</title>
<path fill="none" stroke="#757575" d="M267.54,-471.67C293.75,-458.42 337.62,-437.23 377,-422.88 404.42,-412.88 435.44,-403.97 462.03,-397.03"/>
<polygon fill="#757575" stroke="#757575" points="462.85,-400.43 471.66,-394.55 461.11,-393.65 462.85,-400.43"/>
</g>
<!-- pages/transfer/transfer.page.tsx -->
<g id="node68" class="node">
<title>pages/transfer/transfer.page.tsx</title>
<path fill="none" stroke="#cfffac" d="M621.71,-351.75C621.71,-351.75 431.79,-351.75 431.79,-351.75 427.83,-351.75 423.88,-347.79 423.88,-343.83 423.88,-343.83 423.88,-335.92 423.88,-335.92 423.88,-331.96 427.83,-328 431.79,-328 431.79,-328 621.71,-328 621.71,-328 625.67,-328 629.62,-331.96 629.62,-335.92 629.62,-335.92 629.62,-343.83 629.62,-343.83 629.62,-347.79 625.67,-351.75 621.71,-351.75"/>
<text xml:space="preserve" text-anchor="middle" x="526.75" y="-334.45" font-family="Arial" font-size="14.00" fill="#cfffac">pages/transfer/transfer.page.tsx</text>
</g>
<!-- pages/transfer/index.ts&#45;&gt;pages/transfer/transfer.page.tsx -->
<g id="edge85" class="edge">
<title>pages/transfer/index.ts&#45;&gt;pages/transfer/transfer.page.tsx</title>
<path fill="none" stroke="#757575" d="M319.5,-339.88C347.96,-339.88 380.98,-339.88 412.16,-339.88"/>
<polygon fill="#757575" stroke="#757575" points="412.03,-343.38 422.03,-339.88 412.03,-336.38 412.03,-343.38"/>
</g>
<!-- pages/login/api/index.ts -->
<g id="node43" class="node">
<title>pages/login/api/index.ts</title>
<path fill="none" stroke="#c6c5fe" d="M951.96,-827.75C951.96,-827.75 810.79,-827.75 810.79,-827.75 806.83,-827.75 802.88,-823.79 802.88,-819.83 802.88,-819.83 802.88,-811.92 802.88,-811.92 802.88,-807.96 806.83,-804 810.79,-804 810.79,-804 951.96,-804 951.96,-804 955.92,-804 959.88,-807.96 959.88,-811.92 959.88,-811.92 959.88,-819.83 959.88,-819.83 959.88,-823.79 955.92,-827.75 951.96,-827.75"/>
<text xml:space="preserve" text-anchor="middle" x="881.38" y="-810.45" font-family="Arial" font-size="14.00" fill="#c6c5fe">pages/login/api/index.ts</text>
</g>
<!-- pages/login/api/login.api&#45;model.ts -->
<g id="node44" class="node">
<title>pages/login/api/login.api&#45;model.ts</title>
<path fill="none" stroke="#cfffac" d="M1884.33,-806.75C1884.33,-806.75 1683.17,-806.75 1683.17,-806.75 1679.21,-806.75 1675.25,-802.79 1675.25,-798.83 1675.25,-798.83 1675.25,-790.92 1675.25,-790.92 1675.25,-786.96 1679.21,-783 1683.17,-783 1683.17,-783 1884.33,-783 1884.33,-783 1888.29,-783 1892.25,-786.96 1892.25,-790.92 1892.25,-790.92 1892.25,-798.83 1892.25,-798.83 1892.25,-802.79 1888.29,-806.75 1884.33,-806.75"/>
<text xml:space="preserve" text-anchor="middle" x="1783.75" y="-789.45" font-family="Arial" font-size="14.00" fill="#cfffac">pages/login/api/login.api&#45;model.ts</text>
</g>
<!-- pages/login/api/index.ts&#45;&gt;pages/login/api/login.api&#45;model.ts -->
<g id="edge47" class="edge">
<title>pages/login/api/index.ts&#45;&gt;pages/login/api/login.api&#45;model.ts</title>
<path fill="none" stroke="#757575" d="M960.16,-825.78C998.12,-830.13 1044.5,-834.73 1086.25,-836.88 1279.44,-846.8 1328.67,-852.28 1521.5,-836.88 1555.74,-834.14 1639.1,-820.27 1702.53,-809.21"/>
<polygon fill="#757575" stroke="#757575" points="1702.98,-812.68 1712.23,-807.51 1701.78,-805.79 1702.98,-812.68"/>
</g>
<!-- pages/login/api/login.api.ts -->
<g id="node45" class="node">
<title>pages/login/api/login.api.ts</title>
<path fill="none" stroke="#c6c5fe" d="M1383.46,-827.75C1383.46,-827.75 1224.29,-827.75 1224.29,-827.75 1220.33,-827.75 1216.38,-823.79 1216.38,-819.83 1216.38,-819.83 1216.38,-811.92 1216.38,-811.92 1216.38,-807.96 1220.33,-804 1224.29,-804 1224.29,-804 1383.46,-804 1383.46,-804 1387.42,-804 1391.38,-807.96 1391.38,-811.92 1391.38,-811.92 1391.38,-819.83 1391.38,-819.83 1391.38,-823.79 1387.42,-827.75 1383.46,-827.75"/>
<text xml:space="preserve" text-anchor="middle" x="1303.88" y="-810.45" font-family="Arial" font-size="14.00" fill="#c6c5fe">pages/login/api/login.api.ts</text>
</g>
<!-- pages/login/api/index.ts&#45;&gt;pages/login/api/login.api.ts -->
<g id="edge48" class="edge">
<title>pages/login/api/index.ts&#45;&gt;pages/login/api/login.api.ts</title>
<path fill="none" stroke="#757575" d="M959.99,-815.88C1028.95,-815.88 1130.08,-815.88 1204.65,-815.88"/>
<polygon fill="#757575" stroke="#757575" points="1204.4,-819.38 1214.4,-815.88 1204.4,-812.38 1204.4,-819.38"/>
</g>
<!-- pages/login/api/login.api.ts&#45;&gt;pages/login/api/login.api&#45;model.ts -->
<g id="edge49" class="edge">
<title>pages/login/api/login.api.ts&#45;&gt;pages/login/api/login.api&#45;model.ts</title>
<path fill="none" stroke="#757575" d="M1391.69,-812.06C1467.71,-808.72 1578.9,-803.83 1663.31,-800.12"/>
<polygon fill="#757575" stroke="#757575" points="1663.42,-803.62 1673.26,-799.69 1663.11,-796.63 1663.42,-803.62"/>
</g>
<!-- pages/login/components/index.ts -->
<g id="node46" class="node">
<title>pages/login/components/index.ts</title>
<path fill="none" stroke="#c6c5fe" d="M980.08,-616.75C980.08,-616.75 782.67,-616.75 782.67,-616.75 778.71,-616.75 774.75,-612.79 774.75,-608.83 774.75,-608.83 774.75,-600.92 774.75,-600.92 774.75,-596.96 778.71,-593 782.67,-593 782.67,-593 980.08,-593 980.08,-593 984.04,-593 988,-596.96 988,-600.92 988,-600.92 988,-608.83 988,-608.83 988,-612.79 984.04,-616.75 980.08,-616.75"/>
<text xml:space="preserve" text-anchor="middle" x="881.38" y="-599.45" font-family="Arial" font-size="14.00" fill="#c6c5fe">pages/login/components/index.ts</text>
</g>
<!-- pages/login/components/login&#45;form.component.tsx -->
<g id="node47" class="node">
<title>pages/login/components/login&#45;form.component.tsx</title>
<path fill="none" stroke="#c6c5fe" d="M1455.83,-609.75C1455.83,-609.75 1151.92,-609.75 1151.92,-609.75 1147.96,-609.75 1144,-605.79 1144,-601.83 1144,-601.83 1144,-593.92 1144,-593.92 1144,-589.96 1147.96,-586 1151.92,-586 1151.92,-586 1455.83,-586 1455.83,-586 1459.79,-586 1463.75,-589.96 1463.75,-593.92 1463.75,-593.92 1463.75,-601.83 1463.75,-601.83 1463.75,-605.79 1459.79,-609.75 1455.83,-609.75"/>
<text xml:space="preserve" text-anchor="middle" x="1303.88" y="-592.45" font-family="Arial" font-size="14.00" fill="#c6c5fe">pages/login/components/login&#45;form.component.tsx</text>
</g>
<!-- pages/login/components/index.ts&#45;&gt;pages/login/components/login&#45;form.component.tsx -->
<g id="edge50" class="edge">
<title>pages/login/components/index.ts&#45;&gt;pages/login/components/login&#45;form.component.tsx</title>
<path fill="none" stroke="#757575" d="M988.48,-603.11C1032.05,-602.38 1083.59,-601.53 1132.21,-600.72"/>
<polygon fill="#757575" stroke="#757575" points="1132.05,-604.22 1142,-600.55 1131.94,-597.22 1132.05,-604.22"/>
</g>
<!-- pages/login/components/login&#45;form.component.module.css -->
<g id="node48" class="node">
<title>pages/login/components/login&#45;form.component.module.css</title>
<path fill="none" stroke="#cfffac" d="M1961.58,-553.75C1961.58,-553.75 1605.92,-553.75 1605.92,-553.75 1601.96,-553.75 1598,-549.79 1598,-545.83 1598,-545.83 1598,-537.92 1598,-537.92 1598,-533.96 1601.96,-530 1605.92,-530 1605.92,-530 1961.58,-530 1961.58,-530 1965.54,-530 1969.5,-533.96 1969.5,-537.92 1969.5,-537.92 1969.5,-545.83 1969.5,-545.83 1969.5,-549.79 1965.54,-553.75 1961.58,-553.75"/>
<text xml:space="preserve" text-anchor="middle" x="1783.75" y="-536.45" font-family="Arial" font-size="14.00" fill="#cfffac">pages/login/components/login&#45;form.component.module.css</text>
</g>
<!-- pages/login/components/login&#45;form.component.tsx&#45;&gt;pages/login/components/login&#45;form.component.module.css -->
<g id="edge51" class="edge">
<title>pages/login/components/login&#45;form.component.tsx&#45;&gt;pages/login/components/login&#45;form.component.module.css</title>
<path fill="none" stroke="#757575" d="M1408.42,-585.5C1454.12,-580.06 1508.48,-573.61 1557.5,-567.88 1592.07,-563.83 1629.64,-559.47 1664,-555.51"/>
<polygon fill="#757575" stroke="#757575" points="1664.01,-559.03 1673.54,-554.41 1663.2,-552.08 1664.01,-559.03"/>
</g>
<!-- pages/login/login.validation.ts -->
<g id="node49" class="node">
<title>pages/login/login.validation.ts</title>
<path fill="none" stroke="#c6c5fe" d="M1871.96,-633.75C1871.96,-633.75 1695.54,-633.75 1695.54,-633.75 1691.58,-633.75 1687.62,-629.79 1687.62,-625.83 1687.62,-625.83 1687.62,-617.92 1687.62,-617.92 1687.62,-613.96 1691.58,-610 1695.54,-610 1695.54,-610 1871.96,-610 1871.96,-610 1875.92,-610 1879.88,-613.96 1879.88,-617.92 1879.88,-617.92 1879.88,-625.83 1879.88,-625.83 1879.88,-629.79 1875.92,-633.75 1871.96,-633.75"/>
<text xml:space="preserve" text-anchor="middle" x="1783.75" y="-616.45" font-family="Arial" font-size="14.00" fill="#c6c5fe">pages/login/login.validation.ts</text>
</g>
<!-- pages/login/components/login&#45;form.component.tsx&#45;&gt;pages/login/login.validation.ts -->
<g id="edge52" class="edge">
<title>pages/login/components/login&#45;form.component.tsx&#45;&gt;pages/login/login.validation.ts</title>
<path fill="none" stroke="#757575" d="M1464,-605.87C1533.65,-609.36 1613.53,-613.38 1675.89,-616.51"/>
<polygon fill="#757575" stroke="#757575" points="1675.66,-620 1685.82,-617.01 1676.01,-613.01 1675.66,-620"/>
</g>
<!-- pages/login/login.vm.ts -->
<g id="node50" class="node">
<title>pages/login/login.vm.ts</title>
<path fill="none" stroke="#cfffac" d="M2357.08,-653.75C2357.08,-653.75 2218.92,-653.75 2218.92,-653.75 2214.96,-653.75 2211,-649.79 2211,-645.83 2211,-645.83 2211,-637.92 2211,-637.92 2211,-633.96 2214.96,-630 2218.92,-630 2218.92,-630 2357.08,-630 2357.08,-630 2361.04,-630 2365,-633.96 2365,-637.92 2365,-637.92 2365,-645.83 2365,-645.83 2365,-649.79 2361.04,-653.75 2357.08,-653.75"/>
<text xml:space="preserve" text-anchor="middle" x="2288" y="-636.45" font-family="Arial" font-size="14.00" fill="#cfffac">pages/login/login.vm.ts</text>
</g>
<!-- pages/login/components/login&#45;form.component.tsx&#45;&gt;pages/login/login.vm.ts -->
<g id="edge53" class="edge">
<title>pages/login/components/login&#45;form.component.tsx&#45;&gt;pages/login/login.vm.ts</title>
<path fill="none" stroke="#757575" d="M1464.06,-592.09C1607.14,-588.43 1822.93,-586.71 2010,-600.88 2078.25,-606.04 2155.22,-617.93 2210.67,-627.58"/>
<polygon fill="#757575" stroke="#757575" points="2209.87,-630.99 2220.32,-629.28 2211.08,-624.1 2209.87,-630.99"/>
</g>
<!-- pages/login/login.validation.ts&#45;&gt;pages/login/login.vm.ts -->
<g id="edge67" class="edge">
<title>pages/login/login.validation.ts&#45;&gt;pages/login/login.vm.ts</title>
<path fill="none" stroke="#757575" d="M1880.11,-625.67C1972.09,-629.34 2110.17,-634.83 2199.44,-638.39"/>
<polygon fill="#757575" stroke="#757575" points="2199.24,-641.88 2209.37,-638.78 2199.52,-634.89 2199.24,-641.88"/>
</g>
<!-- pages/login/login.page.tsx&#45;&gt;pages/login/api/index.ts -->
<g id="edge60" class="edge">
<title>pages/login/login.page.tsx&#45;&gt;pages/login/api/index.ts</title>
<path fill="none" stroke="#757575" d="M613.24,-623.46C636.08,-626.37 659.2,-633.6 676.5,-648.88 722.4,-689.41 667.82,-739.99 712.5,-781.88 733.66,-801.71 763.07,-811.37 791.37,-815.72"/>
<polygon fill="#757575" stroke="#757575" points="790.69,-819.17 801.06,-816.99 791.6,-812.22 790.69,-819.17"/>
</g>
<!-- pages/login/login.page.tsx&#45;&gt;pages/login/components/index.ts -->
<g id="edge61" class="edge">
<title>pages/login/login.page.tsx&#45;&gt;pages/login/components/index.ts</title>
<path fill="none" stroke="#757575" d="M613.11,-622.31C658.12,-619.37 714.01,-615.73 763.03,-612.53"/>
<polygon fill="#757575" stroke="#757575" points="763.09,-616.03 772.84,-611.89 762.63,-609.05 763.09,-616.03"/>
</g>
<!-- pages/login/login.page.tsx&#45;&gt;pages/login/login.vm.ts -->
<g id="edge64" class="edge">
<title>pages/login/login.page.tsx&#45;&gt;pages/login/login.vm.ts</title>
<path fill="none" stroke="#757575" d="M573.23,-615.56C755.89,-568 1453.12,-404.55 2010,-520.88 2105.2,-540.76 2207.72,-595.26 2257.08,-623.84"/>
<polygon fill="#757575" stroke="#757575" points="2255.08,-626.73 2265.48,-628.76 2258.62,-620.69 2255.08,-626.73"/>
</g>
<!-- pages/login/login.mapper.ts -->
<g id="node53" class="node">
<title>pages/login/login.mapper.ts</title>
<path fill="none" stroke="#c6c5fe" d="M1386.46,-709.75C1386.46,-709.75 1221.29,-709.75 1221.29,-709.75 1217.33,-709.75 1213.38,-705.79 1213.38,-701.83 1213.38,-701.83 1213.38,-693.92 1213.38,-693.92 1213.38,-689.96 1217.33,-686 1221.29,-686 1221.29,-686 1386.46,-686 1386.46,-686 1390.42,-686 1394.38,-689.96 1394.38,-693.92 1394.38,-693.92 1394.38,-701.83 1394.38,-701.83 1394.38,-705.79 1390.42,-709.75 1386.46,-709.75"/>
<text xml:space="preserve" text-anchor="middle" x="1303.88" y="-692.45" font-family="Arial" font-size="14.00" fill="#c6c5fe">pages/login/login.mapper.ts</text>
</g>
<!-- pages/login/login.page.tsx&#45;&gt;pages/login/login.mapper.ts -->
<g id="edge62" class="edge">
<title>pages/login/login.page.tsx&#45;&gt;pages/login/login.mapper.ts</title>
<path fill="none" stroke="#757575" d="M612.92,-635.57C756.89,-648.57 1047.72,-674.83 1201.79,-688.75"/>
<polygon fill="#757575" stroke="#757575" points="1201.31,-692.22 1211.58,-689.63 1201.94,-685.25 1201.31,-692.22"/>
</g>
<!-- pages/login/login.page.module.css -->
<g id="node54" class="node">
<title>pages/login/login.page.module.css</title>
<path fill="none" stroke="#cfffac" d="M985.33,-772.75C985.33,-772.75 777.42,-772.75 777.42,-772.75 773.46,-772.75 769.5,-768.79 769.5,-764.83 769.5,-764.83 769.5,-756.92 769.5,-756.92 769.5,-752.96 773.46,-749 777.42,-749 777.42,-749 985.33,-749 985.33,-749 989.29,-749 993.25,-752.96 993.25,-756.92 993.25,-756.92 993.25,-764.83 993.25,-764.83 993.25,-768.79 989.29,-772.75 985.33,-772.75"/>
<text xml:space="preserve" text-anchor="middle" x="881.38" y="-755.45" font-family="Arial" font-size="14.00" fill="#cfffac">pages/login/login.page.module.css</text>
</g>
<!-- pages/login/login.page.tsx&#45;&gt;pages/login/login.page.module.css -->
<g id="edge63" class="edge">
<title>pages/login/login.page.tsx&#45;&gt;pages/login/login.page.module.css</title>
<path fill="none" stroke="#757575" d="M612.95,-624.84C635.52,-627.83 658.57,-634.75 676.5,-648.88 710.67,-675.79 678.12,-713.23 712.5,-739.88 725.83,-750.21 741.63,-756.96 758.11,-761.22"/>
<polygon fill="#757575" stroke="#757575" points="757.03,-764.56 767.55,-763.34 758.56,-757.73 757.03,-764.56"/>
</g>
<!-- pages/login/login.mapper.spec.ts -->
<g id="node52" class="node">
<title>pages/login/login.mapper.spec.ts</title>
<path fill="none" stroke="#c6c5fe" d="M980.08,-730.75C980.08,-730.75 782.67,-730.75 782.67,-730.75 778.71,-730.75 774.75,-726.79 774.75,-722.83 774.75,-722.83 774.75,-714.92 774.75,-714.92 774.75,-710.96 778.71,-707 782.67,-707 782.67,-707 980.08,-707 980.08,-707 984.04,-707 988,-710.96 988,-714.92 988,-714.92 988,-722.83 988,-722.83 988,-726.79 984.04,-730.75 980.08,-730.75"/>
<text xml:space="preserve" text-anchor="middle" x="881.38" y="-713.45" font-family="Arial" font-size="14.00" fill="#c6c5fe">pages/login/login.mapper.spec.ts</text>
</g>
<!-- pages/login/login.mapper.spec.ts&#45;&gt;pages/login/api/login.api&#45;model.ts -->
<g id="edge55" class="edge">
<title>pages/login/login.mapper.spec.ts&#45;&gt;pages/login/api/login.api&#45;model.ts</title>
<path fill="none" stroke="#757575" d="M988.15,-728.88C1008.87,-731.75 1030.34,-735.36 1050.25,-739.88 1066.7,-743.61 1069.69,-748.66 1086.25,-751.88 1286.29,-790.7 1524.12,-797.07 1663.74,-796.87"/>
<polygon fill="#757575" stroke="#757575" points="1663.36,-800.37 1673.35,-796.85 1663.34,-793.37 1663.36,-800.37"/>
</g>
<!-- pages/login/login.mapper.spec.ts&#45;&gt;pages/login/login.vm.ts -->
<g id="edge57" class="edge">
<title>pages/login/login.mapper.spec.ts&#45;&gt;pages/login/login.vm.ts</title>
<path fill="none" stroke="#757575" d="M988.43,-721.13C1115.26,-723.3 1333.95,-725.39 1521.5,-718.88 1739,-711.31 1793.72,-709.14 2010,-684.88 2076.62,-677.4 2151.76,-665.52 2206.95,-656.14"/>
<polygon fill="#757575" stroke="#757575" points="2207.3,-659.63 2216.57,-654.49 2206.12,-652.73 2207.3,-659.63"/>
</g>
<!-- pages/login/login.mapper.spec.ts&#45;&gt;pages/login/login.mapper.ts -->
<g id="edge56" class="edge">
<title>pages/login/login.mapper.spec.ts&#45;&gt;pages/login/login.mapper.ts</title>
<path fill="none" stroke="#757575" d="M988.48,-713.58C1053.9,-710.31 1137.3,-706.14 1201.77,-702.92"/>
<polygon fill="#757575" stroke="#757575" points="1201.84,-706.43 1211.66,-702.43 1201.49,-699.43 1201.84,-706.43"/>
</g>
<!-- pages/login/login.mapper.ts&#45;&gt;pages/login/api/login.api&#45;model.ts -->
<g id="edge58" class="edge">
<title>pages/login/login.mapper.ts&#45;&gt;pages/login/api/login.api&#45;model.ts</title>
<path fill="none" stroke="#757575" d="M1365.4,-710.16C1453.49,-728.04 1616.74,-761.18 1710.84,-780.28"/>
<polygon fill="#757575" stroke="#757575" points="1709.99,-783.68 1720.48,-782.24 1711.38,-776.82 1709.99,-783.68"/>
</g>
<!-- pages/login/login.mapper.ts&#45;&gt;pages/login/login.vm.ts -->
<g id="edge59" class="edge">
<title>pages/login/login.mapper.ts&#45;&gt;pages/login/login.vm.ts</title>
<path fill="none" stroke="#757575" d="M1394.77,-693.08C1528.79,-685.89 1788.92,-671.77 2010,-658.88 2073.32,-655.18 2144.76,-650.79 2199.23,-647.4"/>
<polygon fill="#757575" stroke="#757575" points="2199.31,-650.9 2209.07,-646.78 2198.88,-643.91 2199.31,-650.9"/>
</g>
<!-- pages/login/login.validation.spec.ts -->
<g id="node55" class="node">
<title>pages/login/login.validation.spec.ts</title>
<path fill="none" stroke="#c6c5fe" d="M1408.21,-659.75C1408.21,-659.75 1199.54,-659.75 1199.54,-659.75 1195.58,-659.75 1191.62,-655.79 1191.62,-651.83 1191.62,-651.83 1191.62,-643.92 1191.62,-643.92 1191.62,-639.96 1195.58,-636 1199.54,-636 1199.54,-636 1408.21,-636 1408.21,-636 1412.17,-636 1416.12,-639.96 1416.12,-643.92 1416.12,-643.92 1416.12,-651.83 1416.12,-651.83 1416.12,-655.79 1412.17,-659.75 1408.21,-659.75"/>
<text xml:space="preserve" text-anchor="middle" x="1303.88" y="-642.45" font-family="Arial" font-size="14.00" fill="#c6c5fe">pages/login/login.validation.spec.ts</text>
</g>
<!-- pages/login/login.validation.spec.ts&#45;&gt;pages/login/login.validation.ts -->
<g id="edge65" class="edge">
<title>pages/login/login.validation.spec.ts&#45;&gt;pages/login/login.validation.ts</title>
<path fill="none" stroke="#757575" d="M1416.61,-641.8C1494.96,-637.53 1599.06,-631.87 1676.23,-627.67"/>
<polygon fill="#757575" stroke="#757575" points="1676.1,-631.18 1685.9,-627.14 1675.72,-624.19 1676.1,-631.18"/>
</g>
<!-- pages/login/login.validation.spec.ts&#45;&gt;pages/login/login.vm.ts -->
<g id="edge66" class="edge">
<title>pages/login/login.validation.spec.ts&#45;&gt;pages/login/login.vm.ts</title>
<path fill="none" stroke="#757575" d="M1416.58,-647.19C1613.98,-645.99 2020.49,-643.5 2199.31,-642.41"/>
<polygon fill="#757575" stroke="#757575" points="2199.26,-645.91 2209.24,-642.35 2199.22,-638.91 2199.26,-645.91"/>
</g>
<!-- pages/movement&#45;list/api/index.ts -->
<g id="node56" class="node">
<title>pages/movement&#45;list/api/index.ts</title>
<path fill="none" stroke="#c6c5fe" d="M625.83,-455.75C625.83,-455.75 427.67,-455.75 427.67,-455.75 423.71,-455.75 419.75,-451.79 419.75,-447.83 419.75,-447.83 419.75,-439.92 419.75,-439.92 419.75,-435.96 423.71,-432 427.67,-432 427.67,-432 625.83,-432 625.83,-432 629.79,-432 633.75,-435.96 633.75,-439.92 633.75,-439.92 633.75,-447.83 633.75,-447.83 633.75,-451.79 629.79,-455.75 625.83,-455.75"/>
<text xml:space="preserve" text-anchor="middle" x="526.75" y="-438.45" font-family="Arial" font-size="14.00" fill="#c6c5fe">pages/movement&#45;list/api/index.ts</text>
</g>
<!-- pages/movement&#45;list/api/movement&#45;list.api&#45;model.ts -->
<g id="node57" class="node">
<title>pages/movement&#45;list/api/movement&#45;list.api&#45;model.ts</title>
<path fill="none" stroke="#cfffac" d="M1461.46,-435.75C1461.46,-435.75 1146.29,-435.75 1146.29,-435.75 1142.33,-435.75 1138.38,-431.79 1138.38,-427.83 1138.38,-427.83 1138.38,-419.92 1138.38,-419.92 1138.38,-415.96 1142.33,-412 1146.29,-412 1146.29,-412 1461.46,-412 1461.46,-412 1465.42,-412 1469.38,-415.96 1469.38,-419.92 1469.38,-419.92 1469.38,-427.83 1469.38,-427.83 1469.38,-431.79 1465.42,-435.75 1461.46,-435.75"/>
<text xml:space="preserve" text-anchor="middle" x="1303.88" y="-418.45" font-family="Arial" font-size="14.00" fill="#cfffac">pages/movement&#45;list/api/movement&#45;list.api&#45;model.ts</text>
</g>
<!-- pages/movement&#45;list/api/index.ts&#45;&gt;pages/movement&#45;list/api/movement&#45;list.api&#45;model.ts -->
<g id="edge68" class="edge">
<title>pages/movement&#45;list/api/index.ts&#45;&gt;pages/movement&#45;list/api/movement&#45;list.api&#45;model.ts</title>
<path fill="none" stroke="#757575" d="M634.24,-444.55C659.87,-444.68 687.16,-444.81 712.5,-444.88 862.61,-445.28 900.27,-451.1 1050.25,-444.88 1088.47,-443.29 1129.86,-440.36 1167.86,-437.18"/>
<polygon fill="#757575" stroke="#757575" points="1167.83,-440.7 1177.5,-436.36 1167.24,-433.72 1167.83,-440.7"/>
</g>
<!-- pages/movement&#45;list/api/movement&#45;list.api.ts -->
<g id="node58" class="node">
<title>pages/movement&#45;list/api/movement&#45;list.api.ts</title>
<path fill="none" stroke="#c6c5fe" d="M1017.96,-435.75C1017.96,-435.75 744.79,-435.75 744.79,-435.75 740.83,-435.75 736.88,-431.79 736.88,-427.83 736.88,-427.83 736.88,-419.92 736.88,-419.92 736.88,-415.96 740.83,-412 744.79,-412 744.79,-412 1017.96,-412 1017.96,-412 1021.92,-412 1025.88,-415.96 1025.88,-419.92 1025.88,-419.92 1025.88,-427.83 1025.88,-427.83 1025.88,-431.79 1021.92,-435.75 1017.96,-435.75"/>
<text xml:space="preserve" text-anchor="middle" x="881.38" y="-418.45" font-family="Arial" font-size="14.00" fill="#c6c5fe">pages/movement&#45;list/api/movement&#45;list.api.ts</text>
</g>
<!-- pages/movement&#45;list/api/index.ts&#45;&gt;pages/movement&#45;list/api/movement&#45;list.api.ts -->
<g id="edge69" class="edge">
<title>pages/movement&#45;list/api/index.ts&#45;&gt;pages/movement&#45;list/api/movement&#45;list.api.ts</title>
<path fill="none" stroke="#757575" d="M634.03,-437.85C662.74,-436.22 694.42,-434.42 725.22,-432.67"/>
<polygon fill="#757575" stroke="#757575" points="725.23,-436.18 735.01,-432.12 724.83,-429.19 725.23,-436.18"/>
</g>
<!-- pages/movement&#45;list/api/movement&#45;list.api.ts&#45;&gt;pages/movement&#45;list/api/movement&#45;list.api&#45;model.ts -->
<g id="edge70" class="edge">
<title>pages/movement&#45;list/api/movement&#45;list.api.ts&#45;&gt;pages/movement&#45;list/api/movement&#45;list.api&#45;model.ts</title>
<path fill="none" stroke="#757575" d="M1026.2,-423.88C1058.58,-423.88 1093.29,-423.88 1126.81,-423.88"/>
<polygon fill="#757575" stroke="#757575" points="1126.62,-427.38 1136.62,-423.88 1126.62,-420.38 1126.62,-427.38"/>
</g>
<!-- pages/movement&#45;list/components/index.ts -->
<g id="node59" class="node">
<title>pages/movement&#45;list/components/index.ts</title>
<path fill="none" stroke="#c6c5fe" d="M1008.58,-313.75C1008.58,-313.75 754.17,-313.75 754.17,-313.75 750.21,-313.75 746.25,-309.79 746.25,-305.83 746.25,-305.83 746.25,-297.92 746.25,-297.92 746.25,-293.96 750.21,-290 754.17,-290 754.17,-290 1008.58,-290 1008.58,-290 1012.54,-290 1016.5,-293.96 1016.5,-297.92 1016.5,-297.92 1016.5,-305.83 1016.5,-305.83 1016.5,-309.79 1012.54,-313.75 1008.58,-313.75"/>
<text xml:space="preserve" text-anchor="middle" x="881.38" y="-296.45" font-family="Arial" font-size="14.00" fill="#c6c5fe">pages/movement&#45;list/components/index.ts</text>
</g>
<!-- pages/movement&#45;list/components/movement&#45;list&#45;table.component.tsx -->
<g id="node60" class="node">
<title>pages/movement&#45;list/components/movement&#45;list&#45;table.component.tsx</title>
<path fill="none" stroke="#c6c5fe" d="M1513.58,-294.75C1513.58,-294.75 1094.17,-294.75 1094.17,-294.75 1090.21,-294.75 1086.25,-290.79 1086.25,-286.83 1086.25,-286.83 1086.25,-278.92 1086.25,-278.92 1086.25,-274.96 1090.21,-271 1094.17,-271 1094.17,-271 1513.58,-271 1513.58,-271 1517.54,-271 1521.5,-274.96 1521.5,-278.92 1521.5,-278.92 1521.5,-286.83 1521.5,-286.83 1521.5,-290.79 1517.54,-294.75 1513.58,-294.75"/>
<text xml:space="preserve" text-anchor="middle" x="1303.88" y="-277.45" font-family="Arial" font-size="14.00" fill="#c6c5fe">pages/movement&#45;list/components/movement&#45;list&#45;table.component.tsx</text>
</g>
<!-- pages/movement&#45;list/components/index.ts&#45;&gt;pages/movement&#45;list/components/movement&#45;list&#45;table.component.tsx -->
<g id="edge71" class="edge">
<title>pages/movement&#45;list/components/index.ts&#45;&gt;pages/movement&#45;list/components/movement&#45;list&#45;table.component.tsx</title>
<path fill="none" stroke="#757575" d="M1016.87,-295.8C1035.44,-294.96 1054.91,-294.08 1074.6,-293.19"/>
<polygon fill="#757575" stroke="#757575" points="1074.54,-296.7 1084.37,-292.75 1074.22,-289.7 1074.54,-296.7"/>
</g>
<!-- pages/movement&#45;list/components/movement&#45;list&#45;item.component.tsx -->
<g id="node62" class="node">
<title>pages/movement&#45;list/components/movement&#45;list&#45;item.component.tsx</title>
<path fill="none" stroke="#c6c5fe" d="M1991.96,-233.75C1991.96,-233.75 1575.54,-233.75 1575.54,-233.75 1571.58,-233.75 1567.62,-229.79 1567.62,-225.83 1567.62,-225.83 1567.62,-217.92 1567.62,-217.92 1567.62,-213.96 1571.58,-210 1575.54,-210 1575.54,-210 1991.96,-210 1991.96,-210 1995.92,-210 1999.88,-213.96 1999.88,-217.92 1999.88,-217.92 1999.88,-225.83 1999.88,-225.83 1999.88,-229.79 1995.92,-233.75 1991.96,-233.75"/>
<text xml:space="preserve" text-anchor="middle" x="1783.75" y="-216.45" font-family="Arial" font-size="14.00" fill="#c6c5fe">pages/movement&#45;list/components/movement&#45;list&#45;item.component.tsx</text>
</g>
<!-- pages/movement&#45;list/components/movement&#45;list&#45;table.component.tsx&#45;&gt;pages/movement&#45;list/components/movement&#45;list&#45;item.component.tsx -->
<g id="edge74" class="edge">
<title>pages/movement&#45;list/components/movement&#45;list&#45;table.component.tsx&#45;&gt;pages/movement&#45;list/components/movement&#45;list&#45;item.component.tsx</title>
<path fill="none" stroke="#757575" d="M1374.94,-270.55C1425.55,-261.94 1495.6,-250.65 1557.5,-242.88 1579,-240.17 1601.7,-237.66 1624.08,-235.38"/>
<polygon fill="#757575" stroke="#757575" points="1624.28,-238.88 1633.88,-234.4 1623.58,-231.91 1624.28,-238.88"/>
</g>
<!-- pages/movement&#45;list/movement&#45;list.vm.ts -->
<g id="node63" class="node">
<title>pages/movement&#45;list/movement&#45;list.vm.ts</title>
<path fill="none" stroke="#cfffac" d="M2414.08,-334.75C2414.08,-334.75 2161.92,-334.75 2161.92,-334.75 2157.96,-334.75 2154,-330.79 2154,-326.83 2154,-326.83 2154,-318.92 2154,-318.92 2154,-314.96 2157.96,-311 2161.92,-311 2161.92,-311 2414.08,-311 2414.08,-311 2418.04,-311 2422,-314.96 2422,-318.92 2422,-318.92 2422,-326.83 2422,-326.83 2422,-330.79 2418.04,-334.75 2414.08,-334.75"/>
<text xml:space="preserve" text-anchor="middle" x="2288" y="-317.45" font-family="Arial" font-size="14.00" fill="#cfffac">pages/movement&#45;list/movement&#45;list.vm.ts</text>
</g>
<!-- pages/movement&#45;list/components/movement&#45;list&#45;table.component.tsx&#45;&gt;pages/movement&#45;list/movement&#45;list.vm.ts -->
<g id="edge76" class="edge">
<title>pages/movement&#45;list/components/movement&#45;list&#45;table.component.tsx&#45;&gt;pages/movement&#45;list/movement&#45;list.vm.ts</title>
<path fill="none" stroke="#757575" d="M1521.93,-291.72C1710.66,-299.4 1978.83,-310.32 2142.41,-316.99"/>
<polygon fill="#757575" stroke="#757575" points="2141.87,-320.47 2152.01,-317.38 2142.16,-313.47 2141.87,-320.47"/>
</g>
<!-- pages/movement&#45;list/components/movement&#45;list&#45;table.module.css -->
<g id="node64" class="node">
<title>pages/movement&#45;list/components/movement&#45;list&#45;table.module.css</title>
<path fill="none" stroke="#cfffac" d="M1983.71,-275.75C1983.71,-275.75 1583.79,-275.75 1583.79,-275.75 1579.83,-275.75 1575.88,-271.79 1575.88,-267.83 1575.88,-267.83 1575.88,-259.92 1575.88,-259.92 1575.88,-255.96 1579.83,-252 1583.79,-252 1583.79,-252 1983.71,-252 1983.71,-252 1987.67,-252 1991.62,-255.96 1991.62,-259.92 1991.62,-259.92 1991.62,-267.83 1991.62,-267.83 1991.62,-271.79 1987.67,-275.75 1983.71,-275.75"/>
<text xml:space="preserve" text-anchor="middle" x="1783.75" y="-258.45" font-family="Arial" font-size="14.00" fill="#cfffac">pages/movement&#45;list/components/movement&#45;list&#45;table.module.css</text>
</g>
<!-- pages/movement&#45;list/components/movement&#45;list&#45;table.component.tsx&#45;&gt;pages/movement&#45;list/components/movement&#45;list&#45;table.module.css -->
<g id="edge75" class="edge">
<title>pages/movement&#45;list/components/movement&#45;list&#45;table.component.tsx&#45;&gt;pages/movement&#45;list/components/movement&#45;list&#45;table.module.css</title>
<path fill="none" stroke="#757575" d="M1521.79,-274.25C1535.91,-273.69 1550.13,-273.12 1564.25,-272.56"/>
<polygon fill="#757575" stroke="#757575" points="1564.19,-276.07 1574.04,-272.17 1563.91,-269.07 1564.19,-276.07"/>
</g>
<!-- pages/movement&#45;list/components/movement&#45;list&#45;item.component.module.css -->
<g id="node61" class="node">
<title>pages/movement&#45;list/components/movement&#45;list&#45;item.component.module.css</title>
<path fill="none" stroke="#cfffac" d="M2522.08,-233.75C2522.08,-233.75 2053.92,-233.75 2053.92,-233.75 2049.96,-233.75 2046,-229.79 2046,-225.83 2046,-225.83 2046,-217.92 2046,-217.92 2046,-213.96 2049.96,-210 2053.92,-210 2053.92,-210 2522.08,-210 2522.08,-210 2526.04,-210 2530,-213.96 2530,-217.92 2530,-217.92 2530,-225.83 2530,-225.83 2530,-229.79 2526.04,-233.75 2522.08,-233.75"/>
<text xml:space="preserve" text-anchor="middle" x="2288" y="-216.45" font-family="Arial" font-size="14.00" fill="#cfffac">pages/movement&#45;list/components/movement&#45;list&#45;item.component.module.css</text>
</g>
<!-- pages/movement&#45;list/components/movement&#45;list&#45;item.component.tsx&#45;&gt;pages/movement&#45;list/components/movement&#45;list&#45;item.component.module.css -->
<g id="edge72" class="edge">
<title>pages/movement&#45;list/components/movement&#45;list&#45;item.component.tsx&#45;&gt;pages/movement&#45;list/components/movement&#45;list&#45;item.component.module.css</title>
<path fill="none" stroke="#757575" d="M2000.3,-221.88C2011.57,-221.88 2022.95,-221.88 2034.32,-221.88"/>
<polygon fill="#757575" stroke="#757575" points="2034.18,-225.38 2044.18,-221.88 2034.18,-218.38 2034.18,-225.38"/>
</g>
<!-- pages/movement&#45;list/components/movement&#45;list&#45;item.component.tsx&#45;&gt;pages/movement&#45;list/movement&#45;list.vm.ts -->
<g id="edge73" class="edge">
<title>pages/movement&#45;list/components/movement&#45;list&#45;item.component.tsx&#45;&gt;pages/movement&#45;list/movement&#45;list.vm.ts</title>
<path fill="none" stroke="#757575" d="M1954.35,-234.22C1973.2,-236.62 1992.06,-239.48 2010,-242.88 2093.28,-258.64 2187.58,-288.55 2241.89,-307"/>
<polygon fill="#757575" stroke="#757575" points="2240.5,-310.22 2251.1,-310.15 2242.77,-303.6 2240.5,-310.22"/>
</g>
<!-- pages/movement&#45;list/movement&#45;list.page.tsx&#45;&gt;pages/movement&#45;list/api/movement&#45;list.api.ts -->
<g id="edge80" class="edge">
<title>pages/movement&#45;list/movement&#45;list.page.tsx&#45;&gt;pages/movement&#45;list/api/movement&#45;list.api.ts</title>
<path fill="none" stroke="#757575" d="M631.64,-394.25C673.6,-399.25 722.19,-405.03 765.22,-410.16"/>
<polygon fill="#757575" stroke="#757575" points="764.77,-413.63 775.11,-411.34 765.6,-406.68 764.77,-413.63"/>
</g>
<!-- pages/movement&#45;list/movement&#45;list.page.tsx&#45;&gt;pages/movement&#45;list/components/index.ts -->
<g id="edge81" class="edge">
<title>pages/movement&#45;list/movement&#45;list.page.tsx&#45;&gt;pages/movement&#45;list/components/index.ts</title>
<path fill="none" stroke="#757575" d="M653.92,-369.6C661.72,-367.16 669.31,-364.27 676.5,-360.88 696.13,-351.61 692.94,-337.27 712.5,-327.88 721,-323.79 730,-320.32 739.24,-317.38"/>
<polygon fill="#757575" stroke="#757575" points="740.12,-320.76 748.73,-314.58 738.15,-314.05 740.12,-320.76"/>
</g>
<!-- pages/movement&#45;list/movement&#45;list.page.tsx&#45;&gt;pages/movement&#45;list/movement&#45;list.vm.ts -->
<g id="edge84" class="edge">
<title>pages/movement&#45;list/movement&#45;list.page.tsx&#45;&gt;pages/movement&#45;list/movement&#45;list.vm.ts</title>
<path fill="none" stroke="#757575" d="M622.06,-369.52C651.03,-366.16 683.03,-362.9 712.5,-360.88 1238.17,-324.73 1864.61,-321.47 2142.24,-322.07"/>
<polygon fill="#757575" stroke="#757575" points="2142.06,-325.57 2152.07,-322.09 2142.08,-318.57 2142.06,-325.57"/>
</g>
<!-- pages/movement&#45;list/movement&#45;list&#45;mapper.ts -->
<g id="node66" class="node">
<title>pages/movement&#45;list/movement&#45;list&#45;mapper.ts</title>
<path fill="none" stroke="#c6c5fe" d="M1021.33,-393.75C1021.33,-393.75 741.42,-393.75 741.42,-393.75 737.46,-393.75 733.5,-389.79 733.5,-385.83 733.5,-385.83 733.5,-377.92 733.5,-377.92 733.5,-373.96 737.46,-370 741.42,-370 741.42,-370 1021.33,-370 1021.33,-370 1025.29,-370 1029.25,-373.96 1029.25,-377.92 1029.25,-377.92 1029.25,-385.83 1029.25,-385.83 1029.25,-389.79 1025.29,-393.75 1021.33,-393.75"/>
<text xml:space="preserve" text-anchor="middle" x="881.38" y="-376.45" font-family="Arial" font-size="14.00" fill="#c6c5fe">pages/movement&#45;list/movement&#45;list&#45;mapper.ts</text>
</g>
<!-- pages/movement&#45;list/movement&#45;list.page.tsx&#45;&gt;pages/movement&#45;list/movement&#45;list&#45;mapper.ts -->
<g id="edge82" class="edge">
<title>pages/movement&#45;list/movement&#45;list.page.tsx&#45;&gt;pages/movement&#45;list/movement&#45;list&#45;mapper.ts</title>
<path fill="none" stroke="#757575" d="M670.16,-381.88C687.17,-381.88 704.62,-381.88 721.84,-381.88"/>
<polygon fill="#757575" stroke="#757575" points="721.61,-385.38 731.61,-381.88 721.61,-378.38 721.61,-385.38"/>
</g>
<!-- pages/movement&#45;list/movement&#45;list.page.module.css -->
<g id="node67" class="node">
<title>pages/movement&#45;list/movement&#45;list.page.module.css</title>
<path fill="none" stroke="#cfffac" d="M1042.33,-271.75C1042.33,-271.75 720.42,-271.75 720.42,-271.75 716.46,-271.75 712.5,-267.79 712.5,-263.83 712.5,-263.83 712.5,-255.92 712.5,-255.92 712.5,-251.96 716.46,-248 720.42,-248 720.42,-248 1042.33,-248 1042.33,-248 1046.29,-248 1050.25,-251.96 1050.25,-255.92 1050.25,-255.92 1050.25,-263.83 1050.25,-263.83 1050.25,-267.79 1046.29,-271.75 1042.33,-271.75"/>
<text xml:space="preserve" text-anchor="middle" x="881.38" y="-254.45" font-family="Arial" font-size="14.00" fill="#cfffac">pages/movement&#45;list/movement&#45;list.page.module.css</text>
</g>
<!-- pages/movement&#45;list/movement&#45;list.page.tsx&#45;&gt;pages/movement&#45;list/movement&#45;list.page.module.css -->
<g id="edge83" class="edge">
<title>pages/movement&#45;list/movement&#45;list.page.tsx&#45;&gt;pages/movement&#45;list/movement&#45;list.page.module.css</title>
<path fill="none" stroke="#757575" d="M662.59,-369.59C667.46,-367.05 672.12,-364.16 676.5,-360.88 707.68,-337.46 681.14,-304.04 712.5,-280.88 713.87,-279.87 715.26,-278.89 716.67,-277.95"/>
<polygon fill="#757575" stroke="#757575" points="718.19,-281.12 724.99,-273 714.61,-275.11 718.19,-281.12"/>
</g>
<!-- pages/movement&#45;list/movement&#45;list&#45;mapper.ts&#45;&gt;pages/movement&#45;list/api/movement&#45;list.api&#45;model.ts -->
<g id="edge78" class="edge">
<title>pages/movement&#45;list/movement&#45;list&#45;mapper.ts&#45;&gt;pages/movement&#45;list/api/movement&#45;list.api&#45;model.ts</title>
<path fill="none" stroke="#757575" d="M1006.26,-394.25C1057.05,-399.32 1115.96,-405.21 1167.84,-410.39"/>
<polygon fill="#757575" stroke="#757575" points="1167.34,-413.85 1177.64,-411.37 1168.04,-406.89 1167.34,-413.85"/>
</g>
<!-- pages/movement&#45;list/movement&#45;list&#45;mapper.ts&#45;&gt;pages/movement&#45;list/movement&#45;list.vm.ts -->
<g id="edge79" class="edge">
<title>pages/movement&#45;list/movement&#45;list&#45;mapper.ts&#45;&gt;pages/movement&#45;list/movement&#45;list.vm.ts</title>
<path fill="none" stroke="#757575" d="M1029.45,-382.96C1244.91,-383.53 1658.9,-380.78 2010,-355.88 2070.1,-351.61 2137.2,-343.7 2190.3,-336.69"/>
<polygon fill="#757575" stroke="#757575" points="2190.47,-340.2 2199.92,-335.41 2189.54,-333.26 2190.47,-340.2"/>
</g>
<!-- vite&#45;env.d.ts -->
<g id="node69" class="node">
<title>vite&#45;env.d.ts</title>
<path fill="none" stroke="#cfffac" d="M90.58,-702.75C90.58,-702.75 18.42,-702.75 18.42,-702.75 14.46,-702.75 10.5,-698.79 10.5,-694.83 10.5,-694.83 10.5,-686.92 10.5,-686.92 10.5,-682.96 14.46,-679 18.42,-679 18.42,-679 90.58,-679 90.58,-679 94.54,-679 98.5,-682.96 98.5,-686.92 98.5,-686.92 98.5,-694.83 98.5,-694.83 98.5,-698.79 94.54,-702.75 90.58,-702.75"/>
<text xml:space="preserve" text-anchor="middle" x="54.5" y="-685.45" font-family="Arial" font-size="14.00" fill="#cfffac">vite&#45;env.d.ts</text>
</g>
</g>
</svg>
